<svg width="37" height="34" viewBox="0 0 37 34" fill="none" xmlns="http://www.w3.org/2000/svg">
<rect y="0.703125" width="36.1984" height="32.8659" rx="16.433" fill="#F8756C"/>
<path fill-rule="evenodd" clip-rule="evenodd" d="M14.4476 12.8244C14.4476 11.8624 14.8574 10.9398 15.5869 10.2596C16.3164 9.5794 17.3057 9.19727 18.3374 9.19727C19.369 9.19727 20.3584 9.5794 21.0878 10.2596C21.8173 10.9398 22.2271 11.8624 22.2271 12.8244C22.2271 13.7863 21.8173 14.7089 21.0878 15.3891C20.3584 16.0693 19.369 16.4515 18.3374 16.4515C17.3057 16.4515 16.3164 16.0693 15.5869 15.3891C14.8574 14.7089 14.4476 13.7863 14.4476 12.8244ZM14.4476 18.265C13.1581 18.265 11.9214 18.7427 11.0095 19.5929C10.0977 20.4432 9.58545 21.5964 9.58545 22.7989C9.58545 23.5203 9.89281 24.2123 10.4399 24.7224C10.987 25.2326 11.729 25.5192 12.5028 25.5192H24.172C24.9457 25.5192 25.6877 25.2326 26.2348 24.7224C26.7819 24.2123 27.0893 23.5203 27.0893 22.7989C27.0893 21.5964 26.577 20.4432 25.6652 19.5929C24.7534 18.7427 23.5166 18.265 22.2271 18.265H14.4476Z" fill="white"/>
</svg>
