<svg width="1415" height="1772" viewBox="0 0 1415 1772" fill="none" xmlns="http://www.w3.org/2000/svg">
<path d="M153.485 1735.22C152.749 1734.79 151.985 1734.8 151.341 1735.08C149.842 1733.49 148.09 1731.87 146.269 1731.42C147.194 1730.34 148.027 1729.15 148.721 1727.86C153.562 1718.89 150.893 1707.34 143.095 1700.91C138.717 1697.31 132.945 1695.54 127.305 1695.77C123.473 1695.92 115.431 1697.03 114.731 1701.79C112.117 1704.86 110.233 1708.77 109.504 1712.15C107.354 1722.1 112.209 1732.71 121.61 1737.01C129.26 1740.5 138.199 1738.83 144.244 1733.49C144.714 1735.35 146.409 1737.16 148.027 1738.69C147.544 1741.08 149.765 1743.46 151.061 1745.16C155.152 1750.5 159.663 1755.45 164.518 1760.11C165.205 1760.77 166.445 1761.04 167.278 1760.47C172.448 1756.91 169.177 1751.59 166.297 1747.73C162.683 1742.88 158.774 1738.32 153.492 1735.22H153.485ZM137.904 1732.97C128.132 1737.95 116.664 1732.1 113.652 1721.94C112.195 1717.03 113.042 1711.62 115.522 1707.19C116.671 1705.14 118.485 1702.86 120.664 1701.14C122.184 1700.63 123.873 1700.33 124.79 1700.18C127.291 1699.75 129.897 1699.8 132.377 1700.32C137.358 1701.35 141.687 1704.25 144.349 1708.6C149.505 1717.04 146.934 1728.36 137.911 1732.97H137.904Z" fill="#BFB3D9" fill-opacity="0.3"/>
<path d="M125.345 1705.64C123.559 1706.4 121.408 1708.4 122.564 1710.43C122.69 1710.66 122.97 1710.76 123.216 1710.7C124.743 1710.32 125.667 1708.73 127.391 1708.86C130.088 1709.06 130.501 1712.42 130.144 1714.48C129.471 1718.37 125.639 1721.28 126.242 1725.33C126.431 1726.63 128.077 1726.69 128.876 1726.02C130.403 1724.76 131.097 1722.73 131.986 1720.97C132.855 1719.26 133.745 1717.47 134.13 1715.58C134.683 1712.85 134.291 1709.63 132.456 1707.45C130.69 1705.36 127.895 1704.56 125.345 1705.64V1705.64Z" fill="#BFB3D9" fill-opacity="0.3"/>
<path d="M125.872 1518C124.892 1518 123.953 1518.86 124.002 1519.87C124.044 1520.89 124.821 1521.74 125.872 1521.74C126.853 1521.74 127.792 1520.88 127.743 1519.87C127.701 1518.85 126.923 1518 125.872 1518Z" fill="#BFB3D9" fill-opacity="0.3"/>
<path d="M1386.77 207.461C1385.92 205.964 1383.34 205.373 1382.14 206.871L1367.64 225.011C1363.65 229.989 1359.51 237.435 1353.45 240.103C1351.15 241.115 1351.73 245.091 1354.16 245.524C1358.36 246.283 1362.56 247.095 1366.77 247.802C1367.06 257.22 1366.91 266.659 1367.5 276.067C1367.48 276.172 1367.46 276.288 1367.42 276.394C1366.98 276.9 1366.58 277.522 1366.24 278.324C1365.8 279.368 1366.15 280.169 1366.83 280.654C1366.8 280.992 1366.76 281.266 1366.72 281.435C1366.58 282.152 1366.93 282.848 1367.66 283.07C1372.08 284.43 1377.09 284.071 1381.65 283.618C1383.8 283.407 1386.12 283.196 1388.33 282.711C1391.9 283.238 1395.48 283.776 1399.04 284.304C1400.82 284.567 1402.95 283.565 1402.82 281.435C1402.15 270.129 1401.51 258.812 1400.78 247.506C1404.45 247.39 1408.12 247.274 1411.8 247.18C1414.23 247.116 1415.69 244.058 1413.84 242.286C1403.11 232.024 1394.04 220.391 1386.75 207.482L1386.77 207.461ZM1376.29 223.629C1378.93 227.299 1382.57 230.463 1385.59 233.754C1388.68 237.118 1391.69 240.556 1394.76 243.931C1394.71 244.153 1394.68 244.385 1394.69 244.627C1394.81 246.747 1394.93 248.867 1395.05 250.997C1394.85 250.755 1394.61 250.702 1394.37 250.744C1387.36 242.982 1380.43 235.104 1373.11 227.626C1374.17 226.297 1375.23 224.958 1376.29 223.629ZM1370.66 230.716C1371.12 230.126 1371.59 229.546 1372.06 228.955C1379.51 237.888 1387.51 246.41 1395.28 255.079C1395.37 256.461 1395.44 257.842 1395.52 259.234C1393.41 257.104 1390.79 255.395 1388.63 253.307C1386.14 250.913 1383.82 248.34 1381.52 245.766C1377.84 241.653 1373.81 235.789 1368.65 233.364C1369.32 232.457 1369.99 231.571 1370.67 230.727L1370.66 230.716ZM1367.37 242.054C1366.24 241.147 1365.05 240.293 1363.81 239.533C1365.26 237.899 1366.59 236.127 1367.88 234.376C1369.63 236.728 1372.06 238.605 1374.08 240.746C1376.65 243.467 1379.05 246.325 1381.53 249.11C1385.28 253.318 1389.77 259.203 1395.28 261.133C1395.41 261.175 1395.53 261.175 1395.63 261.164C1395.77 263.495 1395.91 265.815 1396.05 268.146C1389.71 263.875 1383.92 258.971 1378.65 253.37C1376.56 251.156 1374.51 248.825 1372.33 246.61C1372.35 246.199 1372.36 245.798 1372.39 245.387C1372.45 244.205 1371.46 242.908 1370.3 242.655C1369.32 242.444 1368.35 242.244 1367.36 242.043L1367.37 242.054ZM1396.25 271.384C1396.29 272.059 1396.33 272.734 1396.38 273.409C1387.84 267.914 1380.15 261.618 1372.06 255.469C1372.04 255.459 1372.01 255.448 1371.99 255.438C1372.06 253.486 1372.12 251.525 1372.2 249.574C1374.62 252.094 1376.99 254.699 1379.47 257.283C1384.56 262.588 1390.17 267.281 1396.25 271.384ZM1377.19 275.086C1376.31 274.959 1375.44 274.822 1374.58 274.717C1373.78 273.989 1373.01 273.23 1372.29 272.418C1371.98 272.069 1371.71 271.711 1371.43 271.363C1371.51 269.95 1371.56 268.536 1371.61 267.123C1374.08 269.897 1376.82 272.46 1379.58 274.938C1379.8 275.128 1380.02 275.328 1380.23 275.539C1379.21 275.392 1378.19 275.244 1377.19 275.086ZM1384.12 276.109C1382.81 275.117 1381.49 274.168 1380.4 273.187C1377.44 270.54 1374.63 267.735 1371.71 265.056C1371.74 264.212 1371.76 263.379 1371.78 262.535C1377.21 267.45 1382.91 272.112 1388.58 276.763C1387.09 276.541 1385.61 276.32 1384.11 276.098L1384.12 276.109ZM1393.5 277.501C1393.25 277.216 1392.99 276.931 1392.72 276.657C1392.47 276.415 1392 276.604 1392.01 276.942C1385.34 271.437 1378.74 265.805 1371.84 260.595C1371.88 259.319 1371.92 258.053 1371.95 256.777C1378.85 264.434 1387.78 270.804 1396.54 276.235C1396.57 276.815 1396.61 277.385 1396.64 277.965C1395.59 277.807 1394.54 277.659 1393.49 277.501H1393.5ZM1397.66 241.695C1397.16 241.695 1396.66 241.864 1396.22 242.107C1393.24 238.774 1390.14 235.536 1387.06 232.309C1383.95 229.061 1380.87 225.211 1377.22 222.469C1378.24 221.182 1379.27 219.896 1380.28 218.609C1383.33 222.353 1386.72 225.833 1389.9 229.461C1393.41 233.458 1396.7 237.772 1400.37 241.643C1399.46 241.664 1398.56 241.674 1397.65 241.695H1397.66ZM1403.21 241.59C1400.11 237.245 1396.29 233.332 1392.71 229.377C1389.02 225.316 1385.38 221.024 1381.31 217.322C1382.16 216.246 1383.02 215.181 1383.87 214.105C1389.88 224.019 1396.95 233.216 1405.01 241.558C1404.41 241.569 1403.82 241.579 1403.21 241.59Z" fill="#BFB3D9" fill-opacity="0.3"/>
<path d="M46.2548 40.6066C46.5177 39.7618 46.0545 38.8983 45.3597 38.3727C41.3726 35.3192 37.3103 32.3595 33.1729 29.5187C35.5389 28.9869 38.7124 28.7992 40.828 27.6291C42.0486 26.9533 42.9875 25.7706 42.5994 24.2752C42.1487 22.5482 40.2271 22.4668 39.4322 21.1528C38.2116 19.138 42.8185 15.271 44.0516 13.9007C45.5475 12.23 47.9261 10.3465 48.3016 7.98129C48.8024 4.79009 45.3034 2.33726 42.9311 0.879322C42.4867 0.604003 42.0548 0.641544 41.7106 0.848033C41.7231 0.228566 40.9469 -0.347099 40.4712 0.253597C36.9097 4.73379 33.8802 9.59566 30.544 14.2385C29.0167 13.1435 27.4707 12.0735 25.9246 10.991C25.0421 10.3778 23.5524 10.9785 23.3521 12.036C22.7074 15.4337 22.288 18.8501 22.0627 22.2854C21.3804 21.8599 20.6981 21.4344 20.0096 21.0151C17.5059 19.4946 14.7706 17.2045 11.7786 17.0418C11.4218 17.023 11.0964 17.1732 10.846 17.3984C10.4516 17.436 10.0511 17.655 9.75687 18.1305C6.02007 24.175 3.08444 30.8953 0.217686 37.3904C-0.214205 38.3602 -0.00763679 39.2613 0.874924 39.8933C5.71962 43.3598 10.5581 46.8325 15.4215 50.274C19.9157 53.459 24.316 57.0569 29.0292 59.9039C32.9789 62.2879 34.6063 59.0529 36.5592 55.9806C39.451 51.4254 42.349 46.8701 45.2408 42.3148C46.1734 42.4087 46.862 41.2573 46.2486 40.6066H46.2548ZM37.7234 24.8383C37.4793 24.8446 37.2227 24.8759 36.9723 24.9071C36.9097 24.4942 36.8283 24.0749 36.7344 23.662C37.0724 24.0374 37.5794 24.5067 37.9487 24.6256C37.9925 24.6756 38.0301 24.7194 38.0739 24.7632L37.7297 24.8446L37.7234 24.8383ZM44.2331 7.48072C44.0265 6.87377 43.7574 6.26681 43.4381 5.67237C44.2143 6.32313 44.3583 6.30436 44.2331 7.48072ZM40.6215 3.07561C41.0346 4.058 41.5917 4.98407 42.011 5.96646C42.4993 7.11779 42.856 8.31919 43.3943 9.44549C42.9687 9.9711 42.4492 10.4404 41.9735 10.966C41.8045 11.16 41.6167 11.354 41.4352 11.5479C40.9031 9.78339 40.1019 7.74978 38.7875 6.66727C38.7437 6.62973 38.6936 6.61721 38.6498 6.6047C39.3258 5.43459 39.9893 4.25823 40.6277 3.06936L40.6215 3.07561ZM38.3994 7.03645C38.5809 8.05012 39.1004 8.95743 39.4572 9.91479C39.8015 10.8221 40.0644 11.7544 40.3398 12.6867C39.8077 13.2374 39.2694 13.8068 38.7499 14.395C38.3055 12.6555 37.761 10.8784 37.0724 9.2828C37.5168 8.53819 37.9613 7.78732 38.3994 7.03645ZM36.3714 10.4654C36.6656 12.2174 37.1475 14.0195 37.6733 15.709C36.7407 16.9542 36.0021 18.2932 35.7517 19.7512C35.7079 19.4759 35.6516 19.2068 35.614 18.9315C35.3136 16.998 35.2823 14.9143 34.8879 12.9621C35.3824 12.1236 35.8769 11.2914 36.3777 10.4592L36.3714 10.4654ZM33.7675 14.8893C33.7425 18.2745 34.5687 22.0413 35.3011 25.22C34.9067 25.3139 34.5061 25.4202 34.1118 25.5329C33.755 22.5231 33.4358 19.4696 32.8537 16.5099C33.1541 15.9655 33.4608 15.4274 33.7675 14.8956V14.8893ZM30.062 26.1211C30.1309 24.9885 30.206 23.8559 30.2748 22.7234C30.3687 21.2404 30.8131 19.5197 30.3249 18.0993C30.7693 18.2745 31.2951 18.2244 31.7207 17.9991C31.9398 20.646 32.3341 23.3053 32.6847 25.9396C32.1151 26.1023 31.558 26.2587 31.026 26.3839C30.6942 26.459 30.3625 26.5403 30.0307 26.6154C30.0432 26.4527 30.0495 26.2837 30.062 26.1148V26.1211ZM26.3377 15.49C27.3768 16.1971 28.4283 16.9041 29.4799 17.5924C28.347 19.188 28.685 21.6909 28.541 23.5743C28.4909 24.2063 28.2906 25.1762 28.1717 26.1586C27.8713 25.9646 27.5708 25.7706 27.2704 25.5767C27.358 24.4754 27.3956 23.3679 27.4331 22.2854C27.4957 20.3581 27.9088 17.9929 26.7383 16.366C26.6695 16.2721 26.5255 16.2534 26.4629 16.366C26.3065 16.6351 26.2 16.9229 26.1124 17.2107C26.1813 16.6351 26.2564 16.0657 26.3377 15.4963V15.49ZM25.8558 19.4633C25.862 20.2455 25.9184 21.0339 25.8808 21.7973C25.837 22.7108 25.7494 23.6182 25.643 24.5255C25.5929 24.4942 25.5491 24.4629 25.499 24.4316C25.5679 22.7734 25.6868 21.1153 25.8558 19.4633ZM17.5497 24.1313C19.0081 25.0073 20.4603 25.902 21.9062 26.8031C21.8937 27.8293 21.8936 28.8617 21.9124 29.8942C21.9375 31.0768 23.0203 31.8589 24.147 31.5961C25.4176 31.3021 26.6883 31.008 27.9589 30.7139C31.6143 33.1417 35.2134 35.6634 38.7499 38.2664C34.4686 37.6594 29.9055 37.7846 25.9309 37.5781C24.1658 37.4905 22.3819 37.4404 20.5792 37.4029C17.8814 32.0341 15.24 26.6341 12.5736 21.2341C14.1071 22.3604 15.9598 23.1676 17.5559 24.125L17.5497 24.1313ZM11.3029 22.0226C13.3935 27.2036 15.7157 32.3157 18.1944 37.3591C13.6251 37.2777 9.01827 37.1776 4.57417 36.5707C6.75867 31.69 9.12467 26.8969 11.3092 22.0226H11.3029ZM26.1187 53.1398C19.3085 48.3405 12.4922 43.5537 5.66328 38.7795C10.1575 39.3426 14.7768 39.4427 19.3148 39.6054C21.6808 44.3234 24.172 48.985 26.7383 53.5779C26.5318 53.4339 26.3315 53.29 26.1249 53.1461L26.1187 53.1398ZM35.1258 51.0312C34.4936 52.0261 33.8614 53.0272 33.2292 54.0221C33.0665 54.2849 31.6081 56.9693 31.3327 57.0131C31.3327 57.0131 30.9821 56.7378 30.5565 56.3999C27.4769 50.8872 24.5726 45.312 21.7309 39.6993C22.1565 39.7181 22.5822 39.7368 23.0015 39.7556C26.6132 39.9496 30.2248 40.0997 33.8364 40.3563C36.3651 40.5378 38.7625 40.9758 41.1723 41.4701C39.1568 44.655 37.1413 47.84 35.1258 51.0249V51.0312Z" fill="#BFB3D9" fill-opacity="0.3"/>
<path d="M493.037 1385.14C493.711 1385.79 494.651 1386.12 495.631 1385.76C496.735 1385.33 497.48 1384.4 497.315 1383.17C497.166 1382.05 496.179 1381.09 495.004 1381.13C494.965 1381.13 494.918 1381.13 494.878 1381.13C494.69 1381.07 494.502 1381.04 494.322 1381.05C494.173 1381.01 494.016 1380.97 493.868 1380.92C493.531 1380.81 493.061 1380.59 492.489 1380.42C491.345 1380.08 490.153 1381.24 490.522 1382.39C490.937 1383.7 491.909 1384.53 493.037 1385.14V1385.14Z" fill="#BFB3D9" fill-opacity="0.3"/>
<path d="M510.862 1371.97C510.4 1373.36 510.572 1374.89 510.266 1376.31C509.945 1377.8 510.807 1379.27 512.382 1379.48C513.863 1379.69 515.281 1378.53 515.258 1376.98C515.234 1375.03 514.999 1372.69 513.479 1371.27C512.586 1370.44 511.238 1370.84 510.862 1371.96V1371.97Z" fill="#BFB3D9" fill-opacity="0.3"/>
<path d="M491.62 1407.27C490.985 1411.33 490.398 1416.28 488.533 1420.27C487.773 1420.34 487.201 1421.09 487.224 1421.81C486.707 1421.54 486.127 1421.64 485.712 1422.14C485.367 1422.55 485.312 1423.02 485.399 1423.48C485.265 1423.5 485.132 1423.53 484.999 1423.59C480.423 1425.61 472.626 1435.16 479.749 1438.8C482.476 1440.2 485.532 1439.31 487.812 1437.5C489.434 1436.2 490.742 1434.55 492.098 1432.99C492.599 1432.41 493.038 1431.96 493.352 1431.5C493.493 1431.53 493.626 1431.55 493.767 1431.57C494.127 1431.61 494.511 1431.57 494.895 1431.49C495.389 1431.68 495.977 1431.65 496.588 1431.21C506.39 1424.36 520.769 1426.55 528.722 1416.56C535.484 1408.06 530.579 1395.05 522.626 1389.14C514.508 1383.12 502.206 1384.22 496.267 1392.76C493.305 1397.02 492.396 1402.25 491.604 1407.26L491.62 1407.27ZM480.211 1434.14C480.141 1433.12 480.791 1432.06 481.379 1431.18C481.857 1432.8 482.249 1434.44 482.593 1436.1C481.442 1436.13 480.321 1435.65 480.211 1434.14ZM484.936 1435.39C484.474 1433.34 483.667 1431.35 482.586 1429.55C483.165 1428.85 483.784 1428.19 484.411 1427.53C484.505 1429.81 485.085 1432.44 486.433 1434.23C485.963 1434.68 485.469 1435.08 484.936 1435.4V1435.39ZM488.972 1431.37C488.666 1431.73 488.345 1432.12 488.023 1432.5C487.655 1431.68 487.209 1430.89 486.903 1430.06C486.433 1428.79 486.057 1427.44 485.712 1426.13C485.939 1425.89 486.159 1425.64 486.378 1425.39C486.378 1425.39 486.386 1425.37 486.394 1425.36C487.428 1426.66 488.744 1428.47 490.272 1429.8C489.849 1430.27 489.45 1430.83 488.979 1431.37H488.972ZM492.615 1427.47C491.879 1426.88 491.228 1426.23 491.095 1426.09C490.797 1425.78 490.061 1424.82 489.285 1423.99C489.34 1423.94 489.403 1423.87 489.45 1423.82C490.672 1424.6 491.832 1425.47 492.921 1426.41C492.733 1426.73 492.607 1427.08 492.607 1427.47H492.615ZM493.845 1428.31C493.798 1428.28 493.743 1428.25 493.689 1428.22C493.736 1428.19 493.783 1428.14 493.806 1428.1C493.853 1428.03 493.892 1427.95 493.939 1427.88C493.971 1427.82 493.979 1427.76 493.971 1427.71C493.971 1427.71 493.986 1427.71 493.994 1427.69C494.049 1427.65 494.096 1427.6 494.151 1427.56C494.214 1427.61 494.268 1427.67 494.331 1427.73C494.127 1427.91 493.963 1428.1 493.845 1428.32V1428.31ZM503.264 1391.91C507.456 1389.16 513.168 1388.95 517.627 1391.19C522.093 1393.43 525.313 1397.73 526.739 1402.46C528.589 1408.62 526.739 1413.83 521.333 1417.25C513.889 1421.96 504.51 1421.71 496.925 1426C496.776 1425.84 496.603 1425.68 496.439 1425.54C496.462 1425.51 496.486 1425.5 496.509 1425.47C497.951 1424.13 499.33 1422.71 500.756 1421.34C502.049 1420.1 503.366 1418.88 504.674 1417.66C505.332 1417.04 505.991 1416.43 506.657 1415.83C506.954 1415.56 508.075 1414.88 508.153 1414.62C508.757 1414.51 509.258 1414.02 509.242 1413.36C509.242 1413.3 509.242 1413.25 509.242 1413.18C509.227 1412.4 508.639 1411.92 507.902 1411.84C506.531 1411.69 505.591 1413.02 504.698 1413.86C502.739 1415.71 500.835 1417.61 498.962 1419.54C497.52 1421.04 496.071 1422.54 494.739 1424.13C494.425 1423.89 494.127 1423.66 493.869 1423.46C493.72 1423.34 493.563 1423.23 493.414 1423.12C495.365 1421.52 496.964 1418.89 498.515 1417.22C499.8 1415.84 501.125 1414.5 502.488 1413.19C503.718 1412 504.988 1411.3 505.246 1409.56C505.317 1409.05 505.042 1408.49 504.455 1408.51C501.336 1408.66 498.445 1413.07 496.509 1415.23C495.358 1416.51 493.689 1418.09 492.443 1419.8C493.179 1418.46 493.767 1417 494.237 1415.29C495.303 1411.4 495.789 1407.37 496.682 1403.44C497.685 1399 499.291 1394.52 503.279 1391.92L503.264 1391.91Z" fill="#BFB3D9" fill-opacity="0.3"/>
<path d="M480.52 1393.8C480.121 1395.25 481.014 1396.52 482.338 1397.01C484.078 1397.64 485.841 1397.77 487.674 1397.84C489.625 1397.9 490.119 1395.3 488.622 1394.33C487.071 1393.32 485.535 1392.46 483.725 1391.99C482.362 1391.63 480.897 1392.44 480.52 1393.8Z" fill="#BFB3D9" fill-opacity="0.3"/>
<path d="M536.2 1385.1C536.435 1384.61 536.717 1384.08 536.889 1383.57C537.093 1382.99 537.069 1382.44 537.163 1381.85C537.344 1380.67 536.223 1379.52 535.04 1380.21C534.029 1380.8 533.238 1381.31 532.438 1382.19C531.631 1383.07 530.597 1384.17 530.37 1385.36C530.19 1386.32 530.409 1387.28 531.232 1387.9C531.984 1388.46 533.081 1388.61 533.912 1388.08C534.993 1387.4 535.651 1386.23 536.2 1385.09V1385.1Z" fill="#BFB3D9" fill-opacity="0.3"/>
<path d="M544.904 1399.52C544.708 1398.1 543.196 1396.9 541.723 1397.41C540.368 1397.87 538.393 1398.09 537.421 1399.22C536.865 1399.87 536.7 1400.95 537.421 1401.58C538.753 1402.76 540.736 1402.57 542.397 1402.41C543.917 1402.27 545.124 1401.15 544.897 1399.52H544.904Z" fill="#BFB3D9" fill-opacity="0.3"/>
<path d="M537.723 1421.05C538.883 1421.66 540.035 1422.49 541.312 1422.82C543.631 1423.4 545.676 1420.36 543.749 1418.63C541.805 1416.88 537.864 1415.75 535.294 1416.35C534.103 1416.62 533.664 1418.28 534.565 1419.11C535.498 1419.97 536.61 1420.46 537.723 1421.04V1421.05Z" fill="#BFB3D9" fill-opacity="0.3"/>
<path d="M522.825 1432.93C522.825 1433.03 522.84 1433.15 522.84 1433.15C522.864 1433.42 522.911 1433.69 522.95 1433.95C523.067 1434.7 523.397 1435.37 523.882 1435.94C525.058 1437.33 527.291 1436.48 527.761 1434.92C528.215 1433.4 527.228 1431.85 526.429 1430.62C525.959 1429.9 526.625 1430.91 526.272 1430.35C526.147 1430.15 526.014 1429.98 525.873 1429.79C526.037 1430.02 525.81 1429.7 525.786 1429.66C525.708 1429.54 525.638 1429.42 525.559 1429.3C525.34 1428.95 525.136 1428.58 524.768 1428.36C524.58 1428.25 524.478 1428.2 524.431 1428.17C523.741 1427.75 522.872 1428.1 522.629 1428.85C522.605 1428.88 522.566 1429 522.488 1429.28C522.378 1429.68 522.488 1430.08 522.55 1430.48C522.597 1430.81 522.582 1430.56 522.613 1430.98C522.629 1431.23 522.652 1431.5 522.676 1431.77C522.676 1431.81 522.691 1431.99 522.691 1432.04C522.715 1432.25 522.746 1432.46 522.785 1432.66C522.785 1432.66 522.809 1432.83 522.825 1432.94V1432.93Z" fill="#BFB3D9" fill-opacity="0.3"/>
<path d="M522.689 1432.04C522.689 1431.99 522.674 1431.94 522.666 1431.9C522.682 1432.06 522.689 1432.08 522.689 1432.04Z" fill="#BFB3D9" fill-opacity="0.3"/>
<path d="M510.458 1433.09C510.003 1432.63 509.126 1432.69 508.812 1433.3C508.413 1434.09 508.334 1435.14 508.272 1436.09C507.896 1436.78 507.935 1437.72 508.295 1438.34C508.797 1439.2 509.87 1439.63 510.834 1439.38C511.704 1439.13 512.315 1438.38 512.44 1437.51C512.558 1436.72 512.268 1436.09 511.751 1435.62C511.61 1435.3 511.477 1434.98 511.328 1434.67C511.061 1434.1 510.897 1433.55 510.45 1433.09L510.458 1433.09Z" fill="#BFB3D9" fill-opacity="0.3"/>
<path d="M481.906 1413.42C483.019 1414.1 484.445 1413.34 484.609 1412.09C484.774 1410.85 483.591 1409.72 482.337 1410.09C481.757 1410.27 481.177 1410.21 480.582 1410.32C479.963 1410.44 479.501 1410.67 478.921 1410.88C478.498 1411.02 478.427 1411.56 478.803 1411.8C479.305 1412.14 479.712 1412.49 480.268 1412.76C480.809 1413.02 481.389 1413.1 481.906 1413.42Z" fill="#BFB3D9" fill-opacity="0.3"/>
<path d="M363.208 242.535C363.61 242.883 364.307 242.964 364.736 242.562C371.182 236.439 376.931 231.121 385.494 228.053C394.553 224.798 403.773 224.825 413.194 223.981C414.48 223.874 415.191 223.003 415.351 222.052C420.605 217.376 424.183 211.214 430.24 207.088C437.088 202.412 444.901 199.639 453.169 198.916C455.112 198.742 456.104 196.987 455.286 195.232C454.04 192.539 453.919 189.913 454.924 187.354C455.259 186.162 454.79 185.265 454.027 184.782C449.671 173.382 445.115 162.089 439.741 151.103C437.329 146.16 435.091 139.904 431.567 135.644C428.98 132.536 425.322 132.831 421.596 133.273C413.127 134.264 405.1 137.72 398.372 142.932C393.468 146.723 385.936 153.836 384.342 160.87C384.033 161.03 383.752 161.218 383.511 161.446C376.06 157.306 367.912 155.779 358.773 156.69C347.328 157.842 336.822 162.758 328.687 170.904C327.977 171.614 327.656 172.712 327.816 173.717C327.548 173.851 327.321 174.092 327.187 174.454C322.912 186.176 331.059 196.022 337.773 204.877C346.511 216.412 354.176 228.589 361.225 241.222C361.734 242.12 362.458 242.522 363.222 242.548L363.208 242.535ZM366.853 234.912C366.961 234.082 367.068 233.238 367.162 232.407C367.389 232.273 367.59 232.112 367.778 231.898C378.311 220.015 394.339 215.112 409.562 218.93C409.589 219.051 409.629 219.171 409.683 219.292C395.384 219.185 376.234 223.338 366.853 234.912ZM449.805 194.441C441.617 195.741 433.912 198.742 427.144 203.672C424.343 205.708 421.167 208.267 418.501 211.227C424.598 199.599 436.11 191.668 449.35 189.766C449.216 191.347 449.376 192.887 449.819 194.441H449.805ZM390.734 157.48C392.999 154.104 395.652 151.05 398.734 148.397C405.086 142.918 413.234 139.247 421.61 138.39C427.654 137.774 428.927 141.619 431.325 146.361C433.483 150.621 435.547 154.935 437.53 159.289C441.242 167.407 444.686 175.659 447.715 184.059C432.679 185.961 419.586 195.768 412.845 209.164C404.993 193.236 396.751 177.508 388.148 161.955C388.148 161.928 388.121 161.914 388.107 161.901C389.005 160.454 389.782 158.914 390.734 157.494V157.48ZM383.35 165.652C391.793 180.951 399.82 196.478 407.512 212.178C392.637 209.579 377.172 214.201 366.157 224.651C355.771 207.664 345.372 190.69 334.986 173.703C348.052 162.115 367.054 159.865 383.35 165.652ZM329.384 176.651C340.226 194.321 351.067 211.977 361.908 229.647C361.828 230.398 361.748 231.148 361.681 231.898C356.521 223.994 351.08 216.264 345.479 208.655C338.537 199.21 327.709 189.257 329.384 176.651Z" fill="#BFB3D9" fill-opacity="0.3"/>
<path d="M377.491 177.252C378.188 177.386 378.778 176.569 378.215 176.006C369.518 167.419 354.696 171.371 348.036 180.748C346.026 183.575 350.368 186.388 352.592 184.165C352.592 184.205 352.592 184.245 352.606 184.272C359.145 177.091 368.151 175.537 377.491 177.252Z" fill="#BFB3D9" fill-opacity="0.3"/>
<path d="M381.342 187.807C381.811 187.78 382.213 187.124 381.771 186.775C377.778 183.587 372.98 183.319 368.075 184.378C363.814 185.302 356.859 188.544 356.135 193.326C355.894 194.88 357.127 196.796 358.963 196.153C362.568 194.867 364.993 191.451 368.652 189.87C372.632 188.142 377.081 188.021 381.356 187.82L381.342 187.807Z" fill="#BFB3D9" fill-opacity="0.3"/>
<path d="M368.796 206.756C373.178 200.767 379.878 200.54 386.525 199.468C387.021 199.388 387.195 198.637 386.833 198.329C380.012 192.622 369.412 197.579 364.467 203.42C361.921 206.448 366.424 209.998 368.796 206.756Z" fill="#BFB3D9" fill-opacity="0.3"/>
<path d="M400.89 167.807C401.734 168.53 402.833 167.82 402.672 166.775C402.096 162.93 406.786 158.885 409.426 156.808C410.834 155.71 412.334 154.732 413.929 153.901C414.733 153.486 415.578 153.017 416.435 152.736C417.507 152.374 418.432 152.669 418.298 151.932C418.539 153.191 420.067 153.285 420.884 152.615C423.028 150.873 421.38 148.1 419.102 147.498C415.832 146.627 411.597 149.48 409.051 151.168C404.817 153.995 394.578 162.394 400.89 167.807Z" fill="#BFB3D9" fill-opacity="0.3"/>
<path d="M408.813 170.032C407.312 171.827 405.543 174.185 405.744 176.676C405.878 178.311 406.936 180.2 408.826 179.557C409.04 179.49 409.255 179.315 409.308 179.074C410.648 171.612 418.81 167.004 425.926 166.535C429.423 166.307 429.329 160.748 425.926 161.15C419.305 161.913 413.154 164.874 408.826 170.032H408.813Z" fill="#BFB3D9" fill-opacity="0.3"/>
<path d="M412.456 191.308C412.296 192.206 413.314 192.916 414.038 192.233C418.983 187.49 423.941 180.872 431.566 180.926C432.451 180.926 433.322 180.444 433.764 179.667C433.871 179.466 433.992 179.278 434.099 179.077C434.461 178.434 434.354 177.617 433.844 177.081C433.683 176.92 433.536 176.759 433.375 176.599C432.786 175.996 431.727 175.634 430.909 175.942C423.485 178.729 414.091 182.386 412.47 191.308H412.456Z" fill="#BFB3D9" fill-opacity="0.3"/>
<path d="M729.557 1771.24C729.833 1771.48 730.312 1771.53 730.606 1771.25C735.034 1767.05 738.983 1763.4 744.864 1761.29C751.087 1759.05 757.42 1759.07 763.89 1758.49C764.774 1758.42 765.262 1757.82 765.372 1757.17C768.981 1753.96 771.438 1749.72 775.599 1746.89C780.302 1743.68 785.669 1741.77 791.348 1741.28C792.683 1741.16 793.364 1739.95 792.802 1738.74C791.946 1736.9 791.863 1735.09 792.554 1733.33C792.784 1732.52 792.462 1731.9 791.937 1731.57C788.946 1723.74 785.816 1715.98 782.125 1708.43C780.468 1705.04 778.931 1700.74 776.51 1697.82C774.734 1695.68 772.221 1695.88 769.662 1696.19C763.844 1696.87 758.331 1699.24 753.71 1702.82C750.341 1705.43 745.168 1710.31 744.073 1715.14C743.861 1715.25 743.668 1715.38 743.502 1715.54C738.384 1712.69 732.788 1711.65 726.51 1712.27C718.65 1713.06 711.433 1716.44 705.846 1722.03C705.358 1722.52 705.137 1723.28 705.248 1723.97C705.064 1724.06 704.907 1724.22 704.815 1724.47C701.879 1732.52 707.475 1739.29 712.087 1745.37C718.088 1753.29 723.353 1761.66 728.195 1770.33C728.545 1770.95 729.042 1771.23 729.566 1771.25L729.557 1771.24ZM732.061 1766C732.134 1765.43 732.208 1764.85 732.273 1764.28C732.429 1764.19 732.567 1764.08 732.696 1763.93C739.931 1755.77 750.94 1752.4 761.396 1755.02C761.414 1755.11 761.442 1755.19 761.479 1755.27C751.658 1755.2 738.504 1758.05 732.061 1766ZM789.038 1738.2C783.414 1739.09 778.121 1741.16 773.473 1744.54C771.549 1745.94 769.367 1747.7 767.536 1749.73C771.724 1741.74 779.63 1736.3 788.725 1734.99C788.633 1736.08 788.743 1737.13 789.047 1738.2H789.038ZM748.463 1712.81C750.019 1710.5 751.842 1708.4 753.959 1706.58C758.322 1702.81 763.918 1700.29 769.671 1699.7C773.822 1699.28 774.697 1701.92 776.344 1705.18C777.826 1708.1 779.244 1711.07 780.606 1714.06C783.156 1719.63 785.521 1725.3 787.602 1731.07C777.274 1732.38 768.281 1739.11 763.651 1748.31C758.257 1737.37 752.596 1726.57 746.687 1715.89C746.687 1715.87 746.669 1715.86 746.659 1715.85C747.276 1714.86 747.81 1713.8 748.463 1712.82V1712.81ZM743.392 1718.43C749.191 1728.94 754.704 1739.6 759.988 1750.38C749.771 1748.6 739.148 1751.77 731.582 1758.95C724.449 1747.28 717.306 1735.63 710.172 1723.96C719.147 1716 732.199 1714.45 743.392 1718.43ZM706.325 1725.98C713.771 1738.12 721.218 1750.25 728.664 1762.38C728.609 1762.9 728.554 1763.41 728.508 1763.93C724.964 1758.5 721.227 1753.19 717.379 1747.96C712.611 1741.48 705.174 1734.64 706.325 1725.98Z" fill="#BFB3D9" fill-opacity="0.3"/>
<path d="M739.368 1726.39C739.846 1726.49 740.251 1725.93 739.865 1725.54C733.891 1719.64 723.71 1722.36 719.136 1728.8C717.755 1730.74 720.737 1732.67 722.265 1731.14C722.265 1731.17 722.265 1731.2 722.274 1731.22C726.766 1726.28 732.952 1725.22 739.368 1726.39Z" fill="#BFB3D9" fill-opacity="0.3"/>
<path d="M742.012 1733.64C742.335 1733.63 742.611 1733.18 742.307 1732.94C739.564 1730.75 736.269 1730.56 732.9 1731.29C729.973 1731.92 725.195 1734.15 724.698 1737.44C724.533 1738.5 725.38 1739.82 726.641 1739.38C729.117 1738.49 730.783 1736.15 733.296 1735.06C736.029 1733.87 739.085 1733.79 742.022 1733.65L742.012 1733.64Z" fill="#BFB3D9" fill-opacity="0.3"/>
<path d="M733.395 1746.66C736.405 1742.55 741.007 1742.39 745.572 1741.65C745.913 1741.6 746.033 1741.08 745.784 1740.87C741.099 1736.95 733.818 1740.36 730.422 1744.37C728.673 1746.45 731.765 1748.89 733.395 1746.66Z" fill="#BFB3D9" fill-opacity="0.3"/>
<path d="M755.439 1719.91C756.019 1720.41 756.774 1719.92 756.663 1719.2C756.267 1716.56 759.489 1713.78 761.302 1712.35C762.269 1711.6 763.3 1710.93 764.395 1710.36C764.947 1710.07 765.527 1709.75 766.116 1709.56C766.853 1709.31 767.488 1709.51 767.396 1709C767.561 1709.87 768.611 1709.93 769.172 1709.47C770.645 1708.28 769.513 1706.37 767.948 1705.96C765.702 1705.36 762.793 1707.32 761.045 1708.48C758.136 1710.42 751.103 1716.19 755.439 1719.91Z" fill="#BFB3D9" fill-opacity="0.3"/>
<path d="M760.881 1721.44C759.85 1722.67 758.635 1724.29 758.773 1726C758.865 1727.12 759.592 1728.42 760.89 1727.98C761.037 1727.93 761.185 1727.81 761.221 1727.65C762.142 1722.52 767.748 1719.36 772.635 1719.04C775.038 1718.88 774.973 1715.06 772.635 1715.34C768.088 1715.86 763.863 1717.89 760.89 1721.44H760.881Z" fill="#BFB3D9" fill-opacity="0.3"/>
<path d="M763.384 1736.05C763.273 1736.67 763.973 1737.15 764.47 1736.68C767.866 1733.43 771.272 1728.88 776.51 1728.92C777.117 1728.92 777.715 1728.59 778.019 1728.05C778.093 1727.92 778.176 1727.79 778.249 1727.65C778.498 1727.21 778.424 1726.65 778.074 1726.28C777.964 1726.17 777.863 1726.06 777.752 1725.95C777.347 1725.53 776.62 1725.28 776.059 1725.5C770.959 1727.41 764.507 1729.92 763.393 1736.05H763.384Z" fill="#BFB3D9" fill-opacity="0.3"/>
<path d="M1379.57 1098.67C1356.1 1083.84 1320.75 1078.2 1294.93 1091.49C1272.94 1095.05 1253.46 1121.96 1252.09 1142.57C1250.54 1165.52 1270.27 1181.83 1291.2 1191.17C1285.56 1203.62 1279.99 1213.94 1265.2 1218.29C1260.3 1219.74 1261.84 1225.98 1266.33 1226.58C1278.59 1228.22 1290.86 1225.15 1300.97 1218.03C1306.89 1213.87 1314.56 1206.92 1317.04 1199.27C1346.55 1204.75 1385.18 1199.56 1405.23 1175.07C1428.78 1146.31 1405.61 1115.09 1379.59 1098.65L1379.57 1098.67ZM1306.4 1200.29C1303.31 1204.94 1299.11 1208.86 1294.42 1211.87C1291.25 1213.91 1287.92 1215.45 1284.47 1216.54C1291.35 1210.37 1296.47 1202.19 1296.66 1193.45C1300.56 1194.96 1304.44 1196.22 1308.17 1197.26C1307.62 1198.27 1307.06 1199.29 1306.4 1200.29ZM1402.65 1149.97C1401.35 1167.97 1383.85 1178.76 1368.4 1183.83C1338.67 1193.57 1301.18 1188.9 1277.03 1167.93C1261.88 1154.79 1261.5 1139.04 1271.7 1122.3C1274.05 1118.42 1276.76 1114.94 1279.8 1111.91C1281.29 1113.02 1283.3 1113.36 1285.39 1112.09C1299.43 1103.73 1312.79 1097.08 1329.55 1096.84C1345.53 1096.59 1360.99 1101.77 1374.31 1110.44C1387.03 1118.71 1403.85 1133.19 1402.65 1149.97Z" fill="#BFB3D9" fill-opacity="0.3"/>
<path d="M1298.19 1142.92C1289.12 1142.92 1289.11 1157.01 1298.19 1157.01C1307.27 1157.01 1307.27 1142.92 1298.19 1142.92Z" fill="#BFB3D9" fill-opacity="0.3"/>
<path d="M1327.14 1151.12C1321.64 1151.12 1321.64 1159.65 1327.14 1159.65C1332.64 1159.65 1332.64 1151.12 1327.14 1151.12Z" fill="#BFB3D9" fill-opacity="0.3"/>
<path d="M1359.13 1151.72C1357 1150.82 1354.63 1151.14 1352.8 1152.55C1350.94 1153.98 1350.22 1156.05 1350.39 1158.26L1350.32 1157.69C1350.33 1157.86 1350.33 1158.05 1350.32 1158.22C1350.16 1160.03 1351.28 1161.8 1352.63 1162.85C1354.16 1164.02 1355.91 1164.34 1357.78 1163.91C1358.49 1163.74 1359.23 1163.4 1359.87 1163.06C1361.79 1162.04 1363.03 1159.69 1363.03 1157.56C1363.03 1155 1361.43 1152.7 1359.11 1151.72H1359.13Z" fill="#BFB3D9" fill-opacity="0.3"/>
<path d="M21.5075 1258.9C24.6426 1260.13 30.5633 1259.28 33.2473 1256.35C34.5442 1256.11 35.4577 1254.94 35.6043 1253.53C39.0552 1222.14 43.5098 1190.87 48.3817 1159.68C48.6411 1157.98 47.9757 1156.26 46.1713 1155.74C44.8631 1149.18 43.882 1142.57 43.2279 1135.9C43.0023 1133.55 39.4951 1131.92 38.2433 1134.55C36.5065 1138.21 34.7698 1141.88 33.0782 1145.56C31.9843 1147.95 30.3941 1150.42 30.1799 1153.05C29.7851 1153.43 29.4581 1153.92 29.2777 1154.47C23.9322 1170.45 23.0187 1187.24 21.1804 1203.87C20.1655 1213.05 18.6994 1222.16 17.0078 1231.25C16.2409 1235.4 12.9253 1244.19 15.1921 1248.71C14.3576 1252.55 18.2709 1257.63 21.5075 1258.9ZM23.3457 1254.46C22.7367 1254.25 22.2518 1253.98 21.8345 1253.65C23.03 1254.06 24.2366 1254.4 25.4659 1254.71C24.7554 1254.77 24.0336 1254.7 23.3457 1254.46ZM30.2475 1249.84C28.5785 1249.35 26.8981 1248.87 25.2178 1248.48C26.8417 1233.08 29.7739 1217.74 32.176 1202.46C33.4052 1194.65 34.6345 1186.84 35.8637 1179.03C36.811 1173.02 38.5252 1166.57 38.7846 1160.38C39.7544 1160.64 40.7356 1160.91 41.7054 1161.16C37.1719 1190.64 33.518 1220.2 30.2588 1249.84H30.2475ZM37.1268 1148.89C37.2057 1148.95 37.2847 1149.01 37.3749 1149.07C38.0741 1149.54 38.9312 1149.72 39.7432 1149.6C40.0025 1151.14 40.2845 1152.67 40.5777 1154.2C38.8297 1153.73 37.0929 1153.25 35.3449 1152.78C35.9088 1151.46 36.5065 1150.17 37.1155 1148.88L37.1268 1148.89ZM22.9285 1232.87C24.575 1224.55 26.12 1216.2 27.1575 1207.79C29.1762 1191.49 29.819 1175.03 34.5217 1159.23C35.4915 1159.49 36.4614 1159.76 37.4313 1160.02C35.5141 1166.61 35.1194 1174.09 34.0367 1180.76C32.7737 1188.55 31.5106 1196.35 30.2475 1204.15C27.8793 1218.75 25.9734 1233.52 22.8721 1247.99C21.7443 1247.79 20.6166 1247.64 19.4888 1247.59C21.9811 1243.59 22.1954 1236.56 22.9285 1232.87Z" fill="#BFB3D9" fill-opacity="0.3"/>
<path d="M317.94 776.037C318.655 777.747 321.265 779.752 323.448 779.687C324.043 780.103 324.855 780.014 325.465 779.532C339.157 768.846 353.189 758.6 367.351 748.548C368.12 747.998 368.543 747.075 368.054 746.166C370.137 743.132 372.364 740.211 374.742 737.392C375.582 736.4 374.879 734.392 373.361 734.909C371.254 735.629 369.142 736.352 367.042 737.098C365.678 737.587 364.097 737.906 362.977 738.832C362.675 738.823 362.358 738.88 362.072 739.021C353.724 743.047 346.757 749.131 339.498 754.789C335.49 757.913 331.34 760.83 327.108 763.653C325.177 764.944 320.442 767.01 319.529 769.64C317.697 770.784 317.199 774.273 317.94 776.037ZM320.392 775.06C320.243 774.738 320.163 774.443 320.132 774.153C320.431 774.78 320.761 775.385 321.109 775.99C320.814 775.732 320.563 775.421 320.392 775.06ZM324.864 776.004C324.414 775.161 323.96 774.313 323.47 773.5C330.159 768.232 337.328 763.501 344.272 758.582C347.821 756.069 351.37 753.557 354.92 751.044C357.651 749.111 360.854 747.307 363.392 745.034C363.663 745.516 363.933 746.006 364.203 746.487C350.85 756.012 337.799 765.917 324.868 776.009L324.864 776.004ZM367.284 739.972C367.287 740.029 367.295 740.081 367.308 740.138C367.39 740.595 367.648 741.002 368.008 741.275C367.5 741.968 367.006 742.667 366.515 743.37C366.03 742.5 365.55 741.634 365.066 740.764C365.801 740.481 366.54 740.219 367.284 739.963L367.284 739.972ZM328.742 766.608C332.65 764.065 336.534 761.469 340.249 758.647C347.444 753.189 354.178 747.124 362.209 742.914C362.479 743.395 362.745 743.881 363.015 744.363C359.681 746.138 356.58 748.855 353.54 750.985C349.982 753.48 346.425 755.975 342.867 758.47C336.207 763.138 329.653 768.058 322.76 772.39C322.407 771.868 322.032 771.367 321.622 770.901C324.152 770.35 327.006 767.735 328.742 766.608Z" fill="#BFB3D9" fill-opacity="0.3"/>
<path d="M785.601 372.43C790.001 374.57 794.436 376.637 798.881 378.675C801.107 379.694 803.333 380.696 805.57 381.682C807.287 382.44 809.428 383.754 811.371 383.68C815.139 383.539 816.608 377.866 817.958 375.148C819.07 372.917 820.172 370.681 821.262 368.445C822.098 366.729 823.285 364.844 823.375 362.885C823.488 360.439 822.002 358.842 820.161 357.619C821.008 356.963 821.245 355.445 820.076 354.856C819.923 354.777 819.765 354.715 819.613 354.636C819.392 354.528 819.155 354.415 818.907 354.302C818.619 354.166 818.336 354.024 818.048 353.894C817.359 353.588 816.619 353.226 815.856 353.469C815.37 353.622 814.975 354.171 815.161 354.698C815.201 354.806 815.246 354.907 815.297 355.004C814.597 354.647 813.896 354.29 813.19 353.939C813.964 352.388 814.399 350.423 813.19 349.138C812.388 348.289 811.072 347.819 810.066 347.253C808.507 346.364 806.948 345.469 805.378 344.586C803.485 343.522 801.35 341.84 799.085 342.763C797.548 343.392 796.599 344.824 796.271 346.387C795.882 346.234 795.498 346.07 795.113 345.917C793.114 345.124 790.877 343.929 788.668 343.692C787.843 343.091 786.674 343.142 785.64 343.522C785.397 343.499 785.16 343.624 784.934 343.839C784.686 343.975 784.46 344.122 784.256 344.286C784.109 344.405 784.03 344.694 784.104 344.869C784.115 344.903 784.132 344.932 784.143 344.96C783.703 345.786 783.364 346.749 783.222 347.202C782.951 347.536 782.697 347.887 782.494 348.255C782.302 348.612 782.307 348.974 782.432 349.285C781.624 350.871 780.912 352.524 780.229 354.154C779.432 356.057 778.72 357.993 778.082 359.958C777.494 361.764 776.54 363.91 776.901 365.851C777.59 369.566 782.72 371.026 785.606 372.43H785.601ZM801.949 346.194C803.333 346.607 804.892 347.915 806.14 348.634C807.281 349.291 808.914 349.891 809.88 350.791C810.829 351.675 810.71 351.165 810.32 352.552C807.586 351.244 804.824 349.982 802.045 348.781C800.898 348.289 799.746 347.802 798.593 347.321C799.531 346.375 800.378 345.724 801.949 346.194ZM785.205 349.574C785.431 349.031 785.697 348.504 785.883 347.978C786.092 347.717 786.307 347.462 786.538 347.225C786.787 346.964 787.081 346.602 787.414 346.449C787.516 346.404 787.617 346.387 787.719 346.381C788.984 347.196 790.453 347.621 791.888 348.176C794.266 349.093 796.633 350.05 798.977 351.052C803.31 352.898 807.592 354.885 811.806 356.997C813.823 358.004 815.941 358.961 817.862 360.15C819.104 360.92 820.144 361.492 819.884 363.394C819.698 364.77 818.506 366.457 817.896 367.709C817.427 368.66 816.958 369.611 816.483 370.568C814.941 369.605 813.162 368.903 811.484 368.235C809.936 367.618 808.123 366.797 806.4 366.706C807.722 363.796 807.586 360.258 805.564 357.478C803.434 354.556 797.158 352.994 794.221 355.587C793.927 355.745 793.645 355.927 793.379 356.119C792.86 356.504 792.408 356.968 792.007 357.489C790.515 356.895 789.035 356.278 787.555 355.66C786.764 355.332 785.979 355.004 785.188 354.675C784.663 354.454 784.138 354.239 783.612 354.019C783.556 353.99 783.499 353.968 783.443 353.939C784.008 352.479 784.601 351.024 785.205 349.574ZM801.604 367.856C798.209 370.302 793.487 368.411 793.057 364.136C792.888 362.449 793.3 360.807 794.159 359.476C794.289 359.459 794.419 359.425 794.543 359.363C795.978 358.684 797.006 357.608 798.684 357.461C800.13 357.331 801.61 357.829 802.632 358.871C805.14 361.435 804.372 365.863 801.604 367.856ZM780.483 362.692C781.115 360.45 781.872 358.248 782.652 356.057C782.799 355.655 782.946 355.253 783.098 354.851C783.929 355.179 784.827 355.417 785.262 355.609C787.329 356.504 789.402 357.387 791.453 358.31C790.515 359.895 790.041 361.809 790.024 363.564C789.967 369.701 796.204 373.846 801.824 371.309C803.745 370.443 805.219 368.965 806.146 367.205C807.552 368.02 809.287 368.411 810.772 369.039C812.557 369.792 814.218 370.777 815.952 371.609C815.568 372.379 815.195 373.155 814.811 373.925C813.998 375.556 812.953 379.27 811.258 379.989C809.575 380.702 806.055 378.341 804.332 377.588C802.09 376.609 799.853 375.618 797.622 374.604C793.17 372.572 788.747 370.471 784.358 368.314C783.533 367.912 782.516 367.573 781.776 367.023C780.02 365.716 779.94 364.566 780.471 362.692H780.483Z" fill="#BFB3D9" fill-opacity="0.3"/>
<path d="M1351.83 1722C1354.41 1723.97 1357.54 1720.74 1356.92 1718.09C1354.12 1706.14 1352.05 1694.04 1350.92 1681.81C1350.36 1675.72 1350.24 1669.62 1349.84 1663.52C1349.61 1660.02 1348.73 1656.69 1345.06 1655.45C1341.28 1654.16 1336.19 1655.98 1332.47 1656.78C1326.63 1658.05 1320.85 1659.55 1315.06 1661.03C1303.1 1664.05 1291.25 1666.6 1278.88 1666.95C1277.92 1666.97 1277.17 1667.32 1276.62 1667.82C1276.22 1667.24 1276.01 1667.08 1275.25 1667.07C1274.75 1667.07 1274.27 1667.43 1274.14 1667.92C1274.08 1668.16 1274.02 1668.39 1273.96 1668.62C1273.83 1669.14 1273.94 1669.86 1274.38 1670.22C1274.75 1670.52 1275.14 1670.8 1275.53 1671.09C1275.75 1672.61 1276.87 1673.99 1278.88 1673.99C1279.16 1673.99 1279.45 1673.97 1279.74 1673.97C1283.72 1676.47 1287.97 1678.71 1291.9 1681.08C1291.94 1681.1 1291.99 1681.14 1292.04 1681.16C1286.22 1688.92 1281.53 1697.46 1276.59 1705.8C1272.8 1712.19 1267.78 1717.21 1273.78 1723.55C1284.67 1735.08 1298.89 1743.42 1313.68 1748.86C1315.03 1749.35 1316.89 1748.53 1317.55 1747.29C1323.92 1735.18 1331.25 1723.51 1337.44 1711.33C1342.28 1714.84 1347.09 1718.39 1351.84 1722.02L1351.83 1722ZM1288.27 1673.49C1305.29 1671.8 1321.66 1665.88 1338.45 1662.71C1342.48 1661.95 1342.39 1661.78 1342.89 1665.67C1343.25 1668.48 1343.13 1671.45 1343.32 1674.28C1343.66 1679.31 1344.13 1684.32 1344.75 1689.31C1345.63 1696.53 1346.83 1703.7 1348.26 1710.82C1337.98 1703.34 1327.42 1696.24 1316.58 1689.59C1309.9 1685.5 1303.15 1681.55 1296.3 1677.78C1293.64 1676.32 1290.98 1674.87 1288.29 1673.51L1288.27 1673.49ZM1286.03 1725.83C1285.09 1725.08 1283.67 1724.12 1282.26 1723.08C1283.84 1720.69 1285.33 1718.23 1287.05 1715.94C1288.43 1714.09 1294.23 1705.11 1297.23 1710.5C1298.83 1713.4 1295.03 1718.16 1293.48 1720.41C1291.8 1722.84 1290.06 1725.23 1288.37 1727.65C1287.58 1727.05 1286.8 1726.46 1286.04 1725.84L1286.03 1725.83ZM1331.89 1707.65C1324.68 1718.17 1318.79 1729.91 1312.93 1741.29C1306.76 1738.9 1300.86 1735.94 1295.26 1732.4C1294.44 1731.89 1293.64 1731.36 1292.84 1730.82C1298.59 1723.48 1307.82 1711.29 1298.77 1704.5C1294.14 1701.02 1291.96 1704.29 1288.86 1707.79C1285.31 1711.79 1281.9 1716.07 1279.64 1720.93C1278.73 1720.07 1278 1719.18 1277.67 1718.33C1276.65 1715.73 1281.16 1710.3 1282.51 1707.93C1284.6 1704.27 1286.7 1700.61 1288.79 1696.96C1291.07 1692.96 1293.34 1688.94 1295.17 1684.71C1295.27 1684.48 1295.5 1683.99 1295.72 1683.43C1301.44 1686.92 1307.11 1690.49 1312.7 1694.16C1319.25 1698.47 1325.71 1702.91 1332.1 1707.45C1332.04 1707.53 1331.98 1707.59 1331.93 1707.66L1331.89 1707.65Z" fill="#BFB3D9" fill-opacity="0.3"/>
<path d="M1248.27 790.945C1266.78 799.611 1286.02 806.208 1305.98 810.642C1307.52 810.989 1308.98 810.181 1309.46 808.661C1312.23 800.005 1314.9 791.32 1317.43 782.596C1318.31 779.528 1320.68 774.95 1319.53 771.68C1318.56 768.977 1315.5 768.141 1313.13 767.16C1296.82 760.446 1279.75 755.714 1262.33 753.031C1260.69 752.781 1258.68 754.089 1258.65 755.733C1255.41 758.648 1254.26 765.159 1253.01 768.9C1250.92 775.229 1248.95 781.596 1247.09 788.011C1246.79 789.031 1247.26 790.473 1248.28 790.954L1248.27 790.945ZM1261.07 759.254C1261.3 759.417 1261.56 759.581 1261.86 759.754C1261.92 759.792 1262 759.821 1262.08 759.85C1261.01 762.091 1259.98 764.361 1258.99 766.659C1259.9 764.255 1260.82 761.658 1261.06 759.263L1261.07 759.254ZM1258.19 772.007L1260.9 765.524C1261.01 765.274 1262.41 761.889 1263.54 759.715C1263.81 759.561 1264.03 759.34 1264.17 759.042C1277.57 761.398 1290.74 764.822 1303.53 769.516C1305.59 770.276 1312.94 771.997 1313.91 774.084C1314.3 774.931 1312.65 778.518 1312.42 779.326C1311.92 781.077 1311.41 782.818 1310.9 784.558C1308.93 791.243 1306.9 797.899 1304.81 804.545C1287.57 800.582 1270.7 795.042 1254.48 787.982C1253.65 782.202 1256.01 777.22 1258.2 771.997L1258.19 772.007Z" fill="#BFB3D9" fill-opacity="0.3"/>
<path d="M1275.26 791.337C1280.25 791.732 1285.28 791.722 1290.28 791.366C1293 791.174 1295.71 790.76 1295.75 787.452C1295.8 784.018 1292.84 779.575 1291.28 776.68C1289.72 773.785 1287.81 768.956 1284.76 767.35C1283.87 766.879 1283 767.062 1282.25 767.677C1282.1 767.802 1281.95 767.927 1281.79 768.052C1281.14 768.591 1281.15 769.63 1281.5 770.312C1281.57 770.447 1281.64 770.582 1281.71 770.716C1282.15 771.572 1283.5 771.746 1284.13 771.034C1283.88 771.313 1283.9 771.822 1284.1 772.476C1283.96 772.602 1283.83 772.765 1283.76 772.977C1283.27 774.275 1282.81 775.583 1282.37 776.891C1281.97 777.882 1281.52 778.863 1281.06 779.825C1281.11 779.68 1281.15 779.536 1281.21 779.392C1282.05 776.978 1283.31 774.592 1283.48 772.034C1283.5 771.707 1283.05 771.544 1282.83 771.765C1282.57 772.034 1282.33 772.332 1282.09 772.64C1282.12 772.361 1282.15 772.082 1282.15 771.794C1282.15 771.274 1281.52 771.063 1281.16 771.39C1276.87 775.198 1275.14 783.922 1273.61 789.202C1273.28 790.337 1274.17 791.27 1275.25 791.357L1275.26 791.337ZM1289.09 781.104C1289.49 781.758 1289.87 782.373 1290.18 782.941C1289.74 782.681 1289.18 782.633 1288.74 782.854C1288.85 782.268 1288.97 781.681 1289.09 781.104Z" fill="#BFB3D9" fill-opacity="0.3"/>
<path d="M77.2028 497.677C77.6056 496.465 77.3623 495.457 76.4727 494.559C70.0781 488.16 61.3169 485.787 52.9502 483.185C43.887 480.363 34.807 477.567 25.6514 475.058C24.7954 474.821 23.7968 475.346 23.2513 475.99C22.7226 476.609 22.2611 477.245 21.8582 477.906C21.6484 478.067 21.447 478.278 21.2792 478.558C17.9812 484.024 15.5811 490.092 12.9125 495.889C11.2929 499.423 7.59204 504.745 8.03681 508.856C8.51515 513.254 14.3895 514.635 17.6791 516.068C23.1842 518.466 28.7732 520.678 34.4293 522.669C39.8169 524.568 45.2633 526.28 50.76 527.831C54.6874 528.941 59.6554 531.009 63.3646 528.229C67.0235 525.483 68.7018 519.457 70.4641 515.398C72.9901 509.601 75.214 503.686 77.2112 497.686L77.2028 497.677ZM26.0961 480.618C34.0936 482.999 42.1079 485.321 50.0802 487.787C57.6329 490.126 65.6975 492.135 71.7985 497.389C71.2614 498.982 70.6991 500.576 70.1201 502.16C68.8193 501.228 67.1493 500.745 65.7059 500.186C62.5757 498.965 59.4288 497.804 56.2566 496.686C47.4871 493.584 38.5749 490.804 29.5117 488.736C27.1871 487.762 24.8709 486.77 22.5715 485.745C22.8065 485.168 23.0415 484.584 23.2597 483.999C24.2499 482.906 25.1395 481.736 26.0961 480.618ZM62.0806 521.144C60.7211 523.873 58.9756 524.585 56.0636 523.881C54.0412 523.398 52.0271 522.805 50.0299 522.229C45.2381 520.856 40.4882 519.313 35.7888 517.652C31.6096 516.169 27.4557 514.593 23.352 512.898C21.1785 512 19.0218 511.084 16.8735 510.127C16.1014 509.779 14.616 509.432 14.0202 508.839C12.9628 507.796 13.2985 508.076 13.5419 506.711C13.9195 504.559 15.5643 502.143 16.4455 500.11C17.2847 498.16 18.1155 496.203 18.9463 494.253C22.2527 497.618 28.8152 498.559 33.0531 499.974C44.2646 503.711 55.4174 507.644 66.8388 510.669C65.3702 514.22 63.801 517.72 62.089 521.152L62.0806 521.144Z" fill="#BFB3D9" fill-opacity="0.3"/>
<path d="M917.261 183.392C921.379 179.198 922.239 172.554 920.733 167.074C919.197 161.502 914.034 152.756 908.288 150.837C907.039 150.419 905.84 151.735 906.188 152.929C907.346 156.95 911.392 159.665 913.563 163.226C915.909 167.064 917.281 171.646 915.837 176.075C913.778 182.362 906.946 183.413 901.548 180.657C897.308 178.494 893.887 174.626 890.906 171.003C888.171 167.676 882.661 161.879 883.828 157.256C885.651 150.082 894.255 157.654 897.216 160.338C898.855 161.818 900.514 163.267 902.112 164.798C902.808 165.461 903.556 166.104 904.15 166.86C904.652 167.717 905.164 168.574 905.666 169.442C904.427 170.36 903.197 171.268 901.958 172.187C900.79 172.105 898.25 167.931 897.472 166.992C895.782 164.972 894.102 162.951 892.186 161.144C890.947 159.981 888.817 161.481 889.769 163.002C891.551 165.859 893.743 168.441 895.874 171.054C897.533 173.095 899.223 175.697 901.835 176.616C906.045 178.096 909.466 174.605 910.04 170.625C910.88 164.808 905.328 160.716 901.559 157.236C897.369 153.368 892.709 148.571 886.481 149.031C881.739 149.378 878.021 152.878 878 157.705C877.98 163.869 882.958 169.544 886.645 174.034C893.375 182.229 907.09 193.751 917.271 183.392H917.261Z" fill="#BFB3D9" fill-opacity="0.3"/>
<path d="M733.917 719.878C738.943 714.648 739.993 706.366 738.155 699.533C736.28 692.586 729.979 681.682 722.966 679.29C721.441 678.769 719.978 680.41 720.403 681.899C721.816 686.912 726.754 690.296 729.404 694.736C732.267 699.52 733.942 705.233 732.18 710.755C729.667 718.593 721.329 719.903 714.74 716.468C709.565 713.771 705.389 708.948 701.752 704.432C698.414 700.284 691.688 693.057 693.113 687.293C695.338 678.349 705.84 687.789 709.452 691.136C711.453 692.981 713.478 694.787 715.428 696.696C716.278 697.523 717.191 698.324 717.916 699.266C718.528 700.335 719.153 701.403 719.766 702.485C718.253 703.63 716.753 704.762 715.24 705.907C713.815 705.806 710.715 700.602 709.765 699.431C707.702 696.912 705.652 694.393 703.314 692.141C701.802 690.69 699.201 692.561 700.364 694.456C702.539 698.019 705.214 701.238 707.815 704.495C709.84 707.04 711.903 710.284 715.09 711.429C720.228 713.274 724.404 708.923 725.104 703.961C726.129 696.709 719.353 691.606 714.753 687.268C709.64 682.446 703.952 676.466 696.351 677.038C690.563 677.471 686.025 681.835 686 687.853C685.975 695.538 692.051 702.612 696.551 708.21C704.764 718.427 721.504 732.792 733.93 719.878H733.917Z" fill="#BFB3D9" fill-opacity="0.3"/>
</svg>
