<svg width="26" height="25" viewBox="0 0 26 25" fill="none" xmlns="http://www.w3.org/2000/svg">
<rect x="1.06458" y="0.306034" width="23.8707" height="23.8707" rx="11.9353" stroke="#FF7660" stroke-width="0.612069"/>
<path d="M8.86862 7.3457H17.1316C17.6397 7.34567 18.1285 7.54007 18.4978 7.88902C18.8672 8.23797 19.0889 8.71502 19.1177 9.22231L19.1208 9.33493V15.1496C19.1208 15.6577 18.9264 16.1465 18.5775 16.5159C18.2285 16.8852 17.7515 17.107 17.2442 17.1357L17.1316 17.1388H8.86862C8.36052 17.1388 7.87166 16.9444 7.50234 16.5955C7.13302 16.2465 6.91122 15.7695 6.88245 15.2622L6.87939 15.1496V9.33493C6.87936 8.82683 7.07376 8.33797 7.42271 7.96865C7.77166 7.59932 8.24871 7.37753 8.756 7.34876L8.86862 7.3457ZM18.2027 10.6343L13.2143 13.2601C13.158 13.2899 13.0961 13.3076 13.0325 13.3121C12.969 13.3166 12.9052 13.3079 12.8452 13.2864L12.7865 13.2607L7.7975 10.635V15.1496C7.79751 15.4184 7.89859 15.6774 8.08069 15.8751C8.26279 16.0729 8.51258 16.1949 8.78048 16.217L8.86862 16.2207H17.1316C17.4005 16.2207 17.6595 16.1195 17.8573 15.9373C18.055 15.7551 18.177 15.5051 18.199 15.2371L18.2027 15.1496V10.6343ZM17.1316 8.26381H8.86862C8.5998 8.26382 8.34082 8.3649 8.14308 8.547C7.94533 8.72909 7.82329 8.97889 7.80117 9.24679L7.7975 9.33493V9.5975L13.0001 12.3359L18.2027 9.59689V9.33493C18.2026 9.06602 18.1015 8.80695 17.9193 8.60919C17.737 8.41143 17.4871 8.28945 17.2191 8.26748L17.1316 8.26381Z" fill="url(#paint0_linear_802_69)"/>
<defs>
<linearGradient id="paint0_linear_802_69" x1="13.0001" y1="7.3457" x2="13.0001" y2="17.1388" gradientUnits="userSpaceOnUse">
<stop stop-color="#CE71BB"/>
<stop offset="1" stop-color="#FE7562"/>
</linearGradient>
</defs>
</svg>
