<svg width="45" height="39" viewBox="0 0 45 39" fill="none" xmlns="http://www.w3.org/2000/svg">
<path d="M24.1037 27.4134L35.4052 33.4746L32.4061 22.0509L42.3909 14.3646L29.2424 13.3571L24.1037 2.59961L18.9649 13.3571L5.81641 14.3646L15.783 22.0509L12.8021 33.4746L24.1037 27.4134Z" fill="#FFA800"/>
<path d="M24.1037 27.4134L35.4052 33.4746L32.4061 22.0509L42.3909 14.3646L29.2424 13.3571L24.1037 2.59961L18.9649 13.3571L5.81641 14.3646L15.783 22.0509L12.8021 33.4746L24.1037 27.4134Z" fill="#FFA800"/>
<path d="M24.1035 27.4134L35.4051 33.4746L32.4059 22.0509L42.3908 14.3646L29.2423 13.3571L24.1035 2.59961L24.1036 13.3571V14.3646V22.0509L24.1035 23.4321L24.1035 27.4134Z" fill="white"/>
<path d="M24.1035 27.4134L35.4051 33.4746L32.4059 22.0509L42.3908 14.3646L29.2423 13.3571L24.1035 2.59961L24.1036 13.3571V14.3646V22.0509L24.1035 23.4321L24.1035 27.4134Z" fill="white"/>
</svg>
