<svg width="21" height="20" viewBox="0 0 21 20" fill="none" xmlns="http://www.w3.org/2000/svg">
<rect x="0.831871" y="0.24569" width="19.1638" height="19.1638" rx="9.5819" stroke="#FF7660" stroke-width="0.491379"/>
<g clip-path="url(#clip0_379_18)">
<path d="M8.04542 8.65231V12.5833M10.1927 8.65231V12.5833M13.8535 5.4043H6.97421C6.71357 5.4043 6.4636 5.50784 6.2793 5.69214C6.095 5.87644 5.99146 6.12641 5.99146 6.38706V13.2664C5.99146 13.527 6.095 13.777 6.2793 13.9613C6.4636 14.1456 6.71357 14.2491 6.97421 14.2491H13.8535C14.1142 14.2491 14.3641 14.1456 14.5484 13.9613C14.7327 13.777 14.8363 13.527 14.8363 13.2664V6.38706C14.8363 6.12641 14.7327 5.87644 14.5484 5.69214C14.3641 5.50784 14.1142 5.4043 13.8535 5.4043Z" stroke="url(#paint0_linear_379_18)" stroke-width="0.737069" stroke-linecap="round" stroke-linejoin="round"/>
<path d="M8.0453 7.42411C8.09222 7.42411 8.13721 7.40547 8.17039 7.37229C8.20356 7.33912 8.2222 7.29413 8.2222 7.24721C8.2222 7.20029 8.20356 7.1553 8.17039 7.12212C8.13721 7.08895 8.09222 7.07031 8.0453 7.07031C7.99839 7.07031 7.95339 7.08895 7.92022 7.12212C7.88705 7.1553 7.86841 7.20029 7.86841 7.24721C7.86841 7.29413 7.88705 7.33912 7.92022 7.37229C7.95339 7.40547 7.99839 7.42411 8.0453 7.42411Z" fill="url(#paint1_linear_379_18)" stroke="url(#paint2_linear_379_18)" stroke-width="0.737069" stroke-linecap="round" stroke-linejoin="round"/>
<path d="M10.1926 10.0781C10.1926 9.89631 10.2285 9.71636 10.2982 9.54851C10.3679 9.38067 10.47 9.22823 10.5988 9.09995C10.7275 8.97167 10.8803 8.87007 11.0484 8.80097C11.2165 8.73187 11.3966 8.69663 11.5783 8.69727C11.9445 8.69727 12.2957 8.84275 12.5547 9.10169C12.8136 9.36064 12.9591 9.71185 12.9591 10.0781V12.5841" stroke="url(#paint3_linear_379_18)" stroke-width="0.737069" stroke-linecap="round" stroke-linejoin="round"/>
</g>
<defs>
<linearGradient id="paint0_linear_379_18" x1="10.4139" y1="5.4043" x2="10.4139" y2="14.2491" gradientUnits="userSpaceOnUse">
<stop stop-color="#CD70BA"/>
<stop offset="1" stop-color="#FE7562"/>
</linearGradient>
<linearGradient id="paint1_linear_379_18" x1="8.0453" y1="7.07031" x2="8.0453" y2="7.42411" gradientUnits="userSpaceOnUse">
<stop stop-color="#CD70BA"/>
<stop offset="1" stop-color="#FE7562"/>
</linearGradient>
<linearGradient id="paint2_linear_379_18" x1="8.0453" y1="7.07031" x2="8.0453" y2="7.42411" gradientUnits="userSpaceOnUse">
<stop stop-color="#CD70BA"/>
<stop offset="1" stop-color="#FE7562"/>
</linearGradient>
<linearGradient id="paint3_linear_379_18" x1="11.5759" y1="8.69727" x2="11.5759" y2="12.5841" gradientUnits="userSpaceOnUse">
<stop stop-color="#CD70BA"/>
<stop offset="1" stop-color="#FE7562"/>
</linearGradient>
<clipPath id="clip0_379_18">
<rect width="11.7931" height="11.7931" fill="white" transform="translate(4.51733 3.93066)"/>
</clipPath>
</defs>
</svg>
