<svg width="196" height="46" viewBox="0 0 196 46" fill="none" xmlns="http://www.w3.org/2000/svg">
<path d="M2.85355 37.2721C1.96447 36.6135 1.27296 35.675 0.779026 34.4567C0.318021 33.2054 0.103983 32.0529 0.136912 30.9991C0.103983 28.9575 0.268627 26.8501 0.630846 24.6768C1.02599 22.5035 1.53639 20.4783 2.16204 18.6014C2.59012 17.416 3.05112 16.214 3.54505 14.9957C4.03899 13.7773 4.54939 12.6248 5.07625 11.5381C5.60311 10.4186 6.11351 9.48009 6.60744 8.72272C7.62824 6.97749 8.6655 5.57801 9.71923 4.52428C10.8059 3.47056 11.6291 2.77905 12.1889 2.44976C13.1109 1.98876 14.214 1.643 15.4983 1.4125C16.7825 1.14907 18.0338 1.14907 19.2522 1.4125C20.1083 1.643 20.948 1.97229 21.7712 2.40037C22.6274 2.82844 23.3683 3.35531 23.9939 3.98096C24.3561 4.31025 24.636 4.656 24.8336 5.01822C25.0312 5.38044 25.13 5.75912 25.13 6.15426C25.13 6.6482 24.8995 7.12567 24.4385 7.58667C23.9774 8.04768 23.4671 8.3605 22.9073 8.52515C22.3475 8.68979 21.9194 8.59101 21.623 8.22879C21.195 7.57021 20.7833 7.07627 20.3882 6.74699C19.9931 6.38477 19.5814 6.12134 19.1534 5.95669C18.7911 5.72619 18.2972 5.61094 17.6716 5.61094C17.0788 5.61094 16.4367 5.72619 15.7452 5.95669C15.0537 6.15427 14.3951 6.51648 13.7695 7.04335C13.539 7.24092 13.2262 7.52082 12.831 7.88303C12.4688 8.24525 12.0736 8.68979 11.6456 9.21666C11.2504 9.71059 10.8882 10.2539 10.5589 10.8466C9.63691 12.3614 8.84661 13.909 8.18803 15.4896C7.56238 17.0373 7.00259 18.7331 6.50866 20.5771C6.27816 21.3345 6.03119 22.273 5.76776 23.3926C5.50433 24.4792 5.25736 25.5659 5.02686 26.6525C4.82928 27.7392 4.69757 28.6941 4.63171 29.5173C4.53292 30.6698 4.56585 31.5754 4.7305 32.234C4.89514 32.8925 5.24089 33.3371 5.76776 33.5676C6.29462 33.7652 7.03552 33.7487 7.99046 33.5182C8.84661 33.3206 9.70276 32.9913 10.5589 32.5303C11.448 32.0364 12.3041 31.4272 13.1274 30.7028C13.9506 29.9454 14.6915 29.0563 15.3501 28.0355C15.9428 26.9159 16.4203 25.8952 16.7825 24.9731C17.1776 24.0511 17.3752 23.3267 17.3752 22.7998C17.4081 22.24 17.1282 21.9766 16.5355 22.0095C15.1854 22.0425 14.0988 21.9931 13.2756 21.8614C12.4853 21.7296 11.9419 21.4004 11.6456 20.8735C11.2175 20.7747 10.987 20.4125 10.9541 19.7868C10.9541 19.1612 11.2669 18.6508 11.8925 18.2556C12.4523 17.9593 13.2262 17.7782 14.214 17.7123C15.2019 17.6465 16.2062 17.6794 17.227 17.8111C18.2807 17.9099 19.1204 18.1404 19.7461 18.5026C20.4705 18.8648 20.9645 19.4082 21.2279 20.1326C21.5242 20.8241 21.6724 21.565 21.6724 22.3553C21.7054 23.1456 21.656 23.8865 21.5242 24.578C21.2279 25.7305 20.8163 26.8501 20.2894 27.9367C19.7955 29.0234 19.1204 30.1265 18.2643 31.2461C17.7703 31.9376 17.0953 32.662 16.2392 33.4194C15.383 34.1768 14.4775 34.8518 13.5225 35.4445C12.6005 36.0702 11.7279 36.5641 10.9047 36.9263C9.58751 37.5191 8.2045 37.9471 6.75562 38.2106C5.33968 38.474 4.03899 38.1612 2.85355 37.2721ZM25.5321 33.9627C25.4003 33.6993 25.104 33.4359 24.643 33.1724C24.2149 32.909 24.0009 32.7114 24.0009 32.5797C24.0009 32.448 23.9185 32.2504 23.7539 31.987C23.6222 31.6906 23.4905 31.4766 23.3587 31.3449C23.1941 31.1473 23.2435 30.6698 23.5069 29.9125C23.7704 29.1222 24.1655 28.1672 24.6924 27.0477C25.2192 25.9281 25.7955 24.792 26.4211 23.6395C26.6846 23.3761 26.948 23.0303 27.2114 22.6023C27.4749 22.1742 27.6724 21.8943 27.8042 21.7626C27.8042 21.6309 27.8535 21.5156 27.9523 21.4168C28.0511 21.2851 28.1664 21.2192 28.2981 21.2192L28.6932 20.429C28.7591 20.2972 28.9567 20.0338 29.286 19.6387C29.6482 19.2435 30.0762 18.8154 30.5702 18.3544C31.0641 17.8605 31.558 17.3995 32.052 16.9714C32.5788 16.5433 33.0069 16.2305 33.3362 16.0329C34.0277 15.5719 34.7357 15.3579 35.4601 15.3908C36.2175 15.4238 36.8596 15.6543 37.3865 16.0823C37.4853 16.1811 37.6993 16.3787 38.0286 16.6751C38.3908 16.9714 38.7859 17.3007 39.214 17.6629C39.675 18.0251 40.0702 18.3544 40.3995 18.6508L42.227 20.2808L41.3873 22.7504C40.9593 24.0676 40.844 25.2201 41.0416 26.208C41.2392 27.1958 41.552 28.052 41.9801 28.7764C42.1447 29.1387 42.3587 29.4185 42.6222 29.6161C42.9185 29.8137 43.2972 29.9454 43.7582 30.0113C44.0216 30.0442 44.2686 30.143 44.4991 30.3076C44.7296 30.4723 44.8449 30.7357 44.8449 31.0979C44.8449 31.8882 44.6967 32.4645 44.4003 32.8267C44.1369 33.156 43.8405 33.3536 43.5112 33.4194C42.4246 33.5511 41.3873 33.4359 40.3995 33.0737C39.4116 32.7114 38.5225 31.773 37.7322 30.2582C37.6005 30.0607 37.4194 29.6984 37.1889 29.1716C36.9913 28.6118 36.8761 28.2496 36.8431 28.0849C36.7114 28.2496 36.5303 28.4636 36.2998 28.727C36.1022 28.9575 35.9047 29.1716 35.7071 29.3692C33.3691 31.74 31.3605 33.2877 29.6811 34.0121C28.0347 34.7036 26.6516 34.6872 25.5321 33.9627ZM28.2487 29.8631C28.4792 29.896 28.8414 29.7808 29.3353 29.5173C29.8293 29.221 30.4879 28.7435 31.3111 28.0849C32.4307 27.13 33.3527 26.3397 34.0771 25.714C34.8015 25.0884 35.5095 24.2816 36.201 23.2938L37.2877 21.5156C36.9584 20.7582 36.662 20.2643 36.3986 20.0338C36.1352 19.8033 35.8717 19.6881 35.6083 19.6881C35.1802 19.6881 34.6698 19.9679 34.0771 20.5277C33.4844 21.0546 32.8093 21.8449 32.052 22.8986C31.3275 23.9194 30.5043 25.2036 29.5823 26.7513C29.1542 27.4757 28.8249 28.1837 28.5944 28.8752C28.3639 29.5338 28.2487 29.8631 28.2487 29.8631ZM52.0212 44.8787C51.0992 45.2409 50.1278 45.175 49.107 44.6811C48.1191 44.2201 47.263 43.4792 46.5385 42.4584C46.4068 42.2608 46.2092 41.8986 45.9458 41.3717C45.6824 40.8778 45.4189 40.3345 45.1555 39.7418C44.925 39.149 44.7439 38.6386 44.6122 38.2106C44.5134 37.7825 44.5134 37.5355 44.6122 37.4697C44.7439 37.1075 45.0403 36.8934 45.5013 36.8276C45.9623 36.7617 46.4233 36.7782 46.8843 36.8769C47.3453 37.0087 47.6087 37.1733 47.6746 37.3709C47.7734 37.6014 47.8721 37.8319 47.9709 38.0624C48.0697 38.3258 48.185 38.5563 48.3167 38.7539C48.4813 38.9844 48.6295 39.182 48.7612 39.3466C49.1234 39.9064 49.5186 40.2851 49.9467 40.4827C50.3747 40.7132 50.704 40.7461 50.9345 40.5815C51.4943 40.1534 51.9059 39.643 52.1694 39.0503C52.4657 38.4905 52.8444 37.4861 53.3054 36.0373C53.6676 34.8189 53.9805 33.7652 54.2439 32.8761C54.5073 31.987 54.7872 31.1638 55.0836 30.4064C55.1824 30.0113 55.2976 29.682 55.4293 29.4185C55.594 29.1222 55.7422 28.9081 55.8739 28.7764H56.1702C55.4458 29.2374 54.8366 29.6984 54.3427 30.1594C53.8487 30.6205 53.1737 31.0321 52.3175 31.3943C52.12 31.6248 51.626 31.773 50.8357 31.8388C50.0784 31.8718 49.3375 31.773 48.613 31.5425C48.152 31.279 47.7734 31.0156 47.477 30.7522C47.2136 30.4558 46.9831 30.1265 46.7855 29.7643C46.6208 29.4021 46.4397 28.974 46.2422 28.4801C46.0117 27.9861 45.9787 27.1794 46.1434 26.0598C46.308 24.9402 46.6044 23.8206 47.0325 22.701C47.4276 21.8778 48.0039 20.9887 48.7612 20.0338C49.5186 19.0789 50.3253 18.2227 51.1815 17.4653C52.0376 16.6751 52.8115 16.1811 53.503 15.9835C53.7664 15.8518 54.2274 15.7037 54.886 15.539C55.5446 15.3414 56.1702 15.325 56.7629 15.4896C57.3227 15.5555 57.7508 15.6872 58.0472 15.8848C58.3435 16.0494 58.821 16.4116 59.4796 16.9714C59.9077 17.3995 60.4345 17.9593 61.0602 18.6508C61.6858 19.3094 62.081 19.8692 62.2456 20.3302C62.4761 20.8241 62.5255 21.3674 62.3938 21.9601C62.2621 22.5199 62.0316 23.0139 61.7023 23.4419C61.4059 23.87 61.0931 24.2981 60.7638 24.7262C60.4345 25.1543 60.1876 25.747 60.0229 26.5043C59.8583 27.4922 59.5454 28.6118 59.0844 29.8631C58.6234 31.0815 58.2612 32.2175 57.9978 33.2712L57.2075 36.3336C56.3843 39.1326 55.4787 41.1577 54.4909 42.409C53.503 43.6932 52.6798 44.5165 52.0212 44.8787ZM50.9839 27.8874C51.6425 27.8544 52.2023 27.7886 52.6633 27.6898C53.1572 27.5581 53.6182 27.2946 54.0463 26.8995C54.4744 26.4714 54.9683 25.8293 55.5281 24.9731C56.0879 24.1828 56.4831 23.4584 56.7136 22.7998C56.9441 22.1413 57.0264 21.4004 56.9605 20.5771C56.9276 20.0503 56.7794 19.7045 56.516 19.5399C56.2526 19.3752 55.9068 19.3258 55.4787 19.3917C54.8531 19.4905 54.2933 19.7539 53.7993 20.182C53.3054 20.5771 52.7292 21.2028 52.0706 22.0589C51.5766 22.7175 51.165 23.5078 50.8357 24.4298C50.5065 25.4177 50.3583 26.208 50.3912 26.8007C50.4571 27.3934 50.6546 27.7556 50.9839 27.8874ZM69.371 35.8891C67.5599 35.8891 66.1604 35.3622 65.1726 34.3085C64.2176 33.2548 63.7401 31.6413 63.7401 29.4679C63.7401 28.2825 63.9542 26.9818 64.3823 25.5659C64.8433 24.1499 65.436 22.7669 66.1604 21.4168C66.9178 20.0667 67.741 18.8978 68.6301 17.9099C69.5192 16.8891 70.4083 16.1811 71.2973 15.786C71.6266 15.6213 71.9724 15.5061 72.3346 15.4402C72.7297 15.3414 73.1084 15.292 73.4706 15.292C73.8658 15.292 74.2939 15.325 74.7549 15.3908C75.2488 15.4238 75.7098 15.5225 76.1379 15.6872C76.8953 15.9177 77.5538 16.3622 78.1136 17.0208C78.7063 17.6794 79.0027 18.6343 79.0027 19.8856C79.0027 20.2149 78.9698 20.5771 78.9039 20.9723C78.8381 21.3345 78.7228 21.6967 78.5582 22.0589C78.1301 23.1456 77.4715 24.1828 76.5824 25.1707C75.7263 26.1586 74.8207 26.8501 73.8658 27.2452C73.6024 27.377 73.3389 27.4757 73.0755 27.5416C72.845 27.5745 72.598 27.591 72.3346 27.591C71.6431 27.591 71.0174 27.4922 70.4576 27.2946C69.9308 27.0971 69.4369 26.8336 68.9758 26.5043L68.5807 26.1586L68.3337 26.6525C68.1032 27.2782 67.9386 27.805 67.8398 28.2331C67.7739 28.6612 67.741 28.974 67.741 29.1716C67.741 29.5667 67.7575 29.9783 67.7904 30.4064C67.8233 30.8016 67.9221 31.1309 68.0868 31.3943C68.2185 31.5589 68.3831 31.6906 68.5807 31.7894C68.8112 31.8882 69.0911 31.9376 69.4204 31.9376C69.618 31.9376 69.7991 31.9376 69.9637 31.9376C70.1613 31.9047 70.3259 31.8718 70.4576 31.8388C71.0504 31.7071 71.5278 31.4931 71.8901 31.1967C72.2852 30.8674 72.6968 30.5875 73.1249 30.357L73.3225 30.2582L73.2731 30.1101C73.8329 29.8137 74.2115 29.6326 74.4091 29.5667C74.6067 29.4679 74.7549 29.3856 74.8537 29.3198C74.9854 29.188 75.1336 29.1222 75.2982 29.1222C75.7592 29.0563 76.2037 29.188 76.6318 29.5173C77.0928 29.8137 77.3233 30.1924 77.3233 30.6534C77.3233 30.851 77.1751 31.1638 76.8788 31.5919C76.6154 32.0199 76.2696 32.448 75.8415 32.8761C75.4464 33.2712 75.0348 33.5841 74.6067 33.8146C74.5079 33.8475 74.4091 33.8969 74.3103 33.9627C74.2115 33.9957 74.1128 34.0451 74.014 34.1109H74.0634C73.767 34.5061 73.4706 34.7036 73.1743 34.7036H72.7791C72.6474 34.9341 72.2193 35.1811 71.4949 35.4445C70.7705 35.7409 70.0625 35.8891 69.371 35.8891ZM71.9395 23.9853C72.2358 23.9853 72.4992 23.9359 72.7297 23.8371C72.9932 23.7383 73.2401 23.6231 73.4706 23.4913C74.2609 22.9316 74.7713 22.2071 75.0018 21.318C75.2323 20.429 75.15 19.7539 74.7549 19.2929C74.689 19.1941 74.6067 19.1283 74.5079 19.0953C74.4091 19.0295 74.2939 18.9965 74.1622 18.9965C73.7999 18.9965 73.3883 19.1118 72.9273 19.3423C72.4992 19.5728 72.0712 19.9021 71.6431 20.3302C71.215 20.7582 70.8199 21.2686 70.4576 21.8614L69.8155 22.8986C69.8814 22.8657 69.9308 22.8492 69.9637 22.8492C70.0296 22.8163 70.079 22.7998 70.1119 22.7998C70.4083 22.7998 70.6058 22.8986 70.7046 23.0962C70.8034 23.2938 70.9187 23.4913 71.0504 23.6889C71.215 23.8865 71.5114 23.9853 71.9395 23.9853ZM95.6568 39.5442C95.6568 39.5442 95.4427 39.4948 95.0146 39.396C94.6195 39.3302 94.2902 39.3137 94.0268 39.3466C93.4999 39.2478 92.9731 38.9679 92.4462 38.5069C91.9193 38.0789 91.7053 37.6014 91.8041 37.0745C91.9358 36.9428 92.0181 36.6629 92.051 36.2348C92.1169 35.8068 92.1498 35.461 92.1498 35.1976C92.2486 34.9341 92.3145 34.7366 92.3474 34.6049C92.3803 34.4731 92.4627 34.1438 92.5944 33.617C92.6602 33.0572 92.7919 32.2834 92.9895 31.2955C93.22 30.2747 93.467 29.188 93.7304 28.0355C93.9939 26.8501 94.2573 25.7305 94.5207 24.6768C94.8171 23.5901 95.064 22.6846 95.2616 21.9601C95.4921 21.2357 95.6568 20.8241 95.7555 20.7253C95.7555 20.7253 95.7555 20.6759 95.7555 20.5771C95.7555 20.4454 95.7391 20.3137 95.7062 20.182C95.7062 20.182 95.7226 20.0338 95.7555 19.7374C95.8214 19.4082 95.9696 19.0295 96.2001 18.6014C96.3318 18.2392 96.4306 17.844 96.4964 17.416C96.5952 16.9879 96.6446 16.708 96.6446 16.5763C96.7763 16.4116 96.941 16.0165 97.1386 15.3908C97.3691 14.7322 97.5996 14.0737 97.8301 13.4151C97.9947 12.8882 98.1758 12.3284 98.3734 11.7357C98.6039 11.143 98.8015 10.6326 98.9661 10.2045C99.1637 9.74352 99.2625 9.51301 99.2625 9.51301C99.2625 9.3813 99.2625 9.31544 99.2625 9.31544C99.2625 9.28251 99.2625 9.26605 99.2625 9.26605C99.3613 9.13433 99.6412 8.45929 100.102 7.24092C100.596 6.02255 101.255 4.44196 102.078 2.49915C102.21 2.23572 102.358 1.93936 102.522 1.61007C102.72 1.28078 102.819 1.05028 102.819 0.918566C102.983 0.655136 103.28 0.523421 103.708 0.523421C104.136 0.523421 104.58 0.622207 105.042 0.81978C105.503 0.984424 105.815 1.24786 105.98 1.61007L107.116 2.40037L105.437 6.00609C104.976 6.9281 104.58 7.78425 104.251 8.57454C103.922 9.33191 103.757 9.77645 103.757 9.90816C103.757 9.90816 103.691 10.1057 103.56 10.5009C103.428 10.896 103.263 11.4064 103.066 12.0321C102.901 12.6248 102.736 13.2175 102.572 13.8102C102.243 14.864 101.93 15.7366 101.633 16.4281C101.37 17.1196 101.238 17.5312 101.238 17.6629C101.238 17.5971 101.584 17.5477 102.275 17.5147C102.967 17.4489 103.823 17.3995 104.844 17.3666C105.898 17.3007 106.968 17.2513 108.055 17.2184C109.174 17.1525 110.162 17.0867 111.018 17.0208C111.907 16.955 112.516 16.8891 112.846 16.8232L115.365 16.4775L116.55 12.0815C116.781 11.1265 117.077 9.99048 117.439 8.67333C117.834 7.35617 118.18 6.22012 118.477 5.26518C118.938 3.71752 119.464 2.59794 120.057 1.90644C120.65 1.182 121.144 0.81978 121.539 0.81978C122.099 0.81978 122.543 1.05028 122.873 1.51129C123.202 1.97229 123.432 2.33451 123.564 2.59794C123.992 2.92723 124.19 3.32238 124.157 3.78338C124.157 4.24439 123.91 4.87004 123.416 5.66033C122.955 6.54941 122.56 7.52082 122.23 8.57454C121.934 9.62827 121.654 10.4844 121.391 11.143C121.424 11.5381 121.391 11.8674 121.292 12.1309C121.193 12.3614 121.078 12.5589 120.946 12.7236C120.88 12.7894 120.749 13.0364 120.551 13.4645C120.386 13.8926 120.222 14.3206 120.057 14.7487C119.925 15.1768 119.86 15.4402 119.86 15.539C119.892 15.7695 119.86 16.0659 119.761 16.4281C119.662 16.7574 119.547 16.9879 119.415 17.1196C119.382 17.3172 119.267 17.8276 119.069 18.6508C118.872 19.4411 118.625 20.3796 118.328 21.4662C118.065 22.5199 117.785 23.5572 117.489 24.578C117.225 25.5988 116.962 26.4385 116.698 27.0971C116.731 27.3276 116.665 27.6239 116.501 27.9861C116.336 28.3154 116.27 28.6118 116.303 28.8752C116.171 29.2704 116.007 29.7808 115.809 30.4064C115.645 30.9991 115.579 31.3778 115.612 31.5425C115.48 32.2998 115.299 33.1395 115.068 34.0615C114.838 34.9835 114.64 35.7903 114.476 36.4818C114.311 37.1733 114.229 37.5685 114.229 37.6672C114.13 37.799 113.834 37.8154 113.34 37.7166C112.879 37.6508 112.467 37.552 112.105 37.4203C111.479 37.0581 111.002 36.5477 110.672 35.8891C110.376 35.2634 110.392 34.5719 110.722 33.8146C110.886 33.5511 111.067 32.8925 111.265 31.8388C111.496 30.7851 111.726 29.7478 111.957 28.727C112.121 28.2331 112.286 27.591 112.451 26.8007C112.615 26.0104 112.763 25.2201 112.895 24.4298C113.06 23.6395 113.191 22.9645 113.29 22.4047C113.422 21.8449 113.521 21.5321 113.587 21.4662C113.587 21.3345 113.587 21.2192 113.587 21.1205C113.587 21.0217 113.587 20.9723 113.587 20.9723C113.521 20.9064 113.158 20.8735 112.5 20.8735C111.841 20.8406 111.018 20.8406 110.03 20.8735C109.042 20.9064 107.989 20.9723 106.869 21.0711C105.782 21.1699 104.762 21.3016 103.807 21.4662C103.444 21.4991 102.967 21.5156 102.374 21.5156C101.782 21.5156 101.353 21.5321 101.09 21.565C100.728 21.565 100.415 21.5815 100.152 21.6144C99.9211 21.6144 99.8058 21.6144 99.8058 21.6144C99.7729 21.7132 99.6741 22.0425 99.5094 22.6023C99.3448 23.1621 99.1637 23.8371 98.9661 24.6274C98.7685 25.3848 98.571 26.175 98.3734 26.9983C98.1758 27.8215 97.9947 28.5789 97.8301 29.2704C97.6984 29.9289 97.616 30.4229 97.5831 30.7522C97.4843 31.3449 97.3361 32.1023 97.1386 33.0243C96.941 33.9133 96.727 34.8189 96.4964 35.7409C96.2989 36.6629 96.1178 37.4697 95.9531 38.1612C95.8214 38.8856 95.7226 39.3466 95.6568 39.5442ZM124.07 34.1109C123.675 34.2097 123.23 34.0945 122.736 33.7652C122.242 33.4359 121.798 33.0243 121.403 32.5303C121.008 32.0364 120.761 31.5919 120.662 31.1967C120.53 30.5052 120.563 29.6655 120.761 28.6776C120.991 27.6569 121.37 26.5867 121.897 25.4671C122.423 24.3146 123.082 23.195 123.872 22.1083C124.663 20.9887 125.552 19.9844 126.54 19.0953C127.527 18.2063 128.598 17.5147 129.75 17.0208C130.244 16.7574 130.59 16.5927 130.787 16.5269C130.985 16.4281 131.183 16.4281 131.38 16.5269C131.578 16.5927 131.923 16.7574 132.417 17.0208C132.878 17.1525 133.339 17.3172 133.8 17.5147C134.294 17.6794 134.722 18.0087 135.085 18.5026C135.348 18.9965 135.546 19.4905 135.677 19.9844C135.809 20.4783 135.924 21.0381 136.023 21.6638C136.287 22.487 136.385 23.0303 136.319 23.2938C136.254 23.5243 136.155 23.7054 136.023 23.8371C135.76 24.1664 135.694 24.331 135.826 24.331C135.826 24.331 135.809 24.3969 135.776 24.5286C135.776 24.6274 135.71 24.792 135.579 25.0225C135.348 25.747 135.167 26.4385 135.035 27.0971C134.936 27.7227 134.953 28.2825 135.085 28.7764C135.348 29.5009 135.694 29.9289 136.122 30.0607C136.583 30.1924 137.176 29.896 137.9 29.1716C138.262 28.9081 138.674 28.7435 139.135 28.6776C139.596 28.5789 139.826 28.6612 139.826 28.9246C139.826 28.9246 139.876 28.974 139.975 29.0728C140.073 29.1387 140.189 29.1716 140.32 29.1716C140.485 29.1716 140.551 29.3362 140.518 29.6655C140.485 29.9619 140.419 30.3076 140.32 30.7028C140.222 31.0979 140.09 31.4272 139.925 31.6906C139.431 32.1846 139.184 32.5139 139.184 32.6785C139.184 32.6785 139.118 32.7444 138.987 32.8761C138.888 32.9749 138.707 33.1395 138.443 33.37C137.851 33.7322 137.093 33.9133 136.171 33.9133C135.282 33.9133 134.591 33.7322 134.097 33.37C133.603 33.0078 133.109 32.5633 132.615 32.0364C132.154 31.5095 131.858 31.0156 131.726 30.5546L131.479 30.0607L130.047 30.9991C129.684 31.3614 129.421 31.6413 129.256 31.8388C129.092 32.0035 128.943 32.1516 128.812 32.2834C128.713 32.4151 128.598 32.5303 128.466 32.6291C128.367 32.7279 128.252 32.7773 128.12 32.7773C127.988 32.7773 127.873 32.7773 127.774 32.7773C127.676 32.7773 127.626 32.7773 127.626 32.7773C127.626 32.909 127.396 33.0901 126.935 33.3206C126.474 33.5182 125.963 33.6993 125.404 33.864C124.844 34.0286 124.399 34.1109 124.07 34.1109ZM125.107 29.9619C125.305 29.9619 125.601 29.8466 125.996 29.6161C126.424 29.3527 126.885 29.0399 127.379 28.6776C127.873 28.3154 128.318 27.9532 128.713 27.591C129.141 27.2288 129.454 26.9324 129.651 26.7019C129.783 26.5702 129.931 26.3562 130.096 26.0598C130.293 25.7634 130.508 25.5 130.738 25.2695C131.495 24.4134 131.973 23.7383 132.17 23.2444C132.368 22.7175 132.286 22.1577 131.923 21.565C131.792 21.2028 131.627 21.0052 131.43 20.9723C131.232 20.9394 130.82 21.0546 130.195 21.318C129.8 21.5485 129.371 21.9272 128.91 22.4541C128.449 22.9809 127.972 23.5737 127.478 24.2322C127.017 24.8908 126.589 25.5659 126.194 26.2574C125.799 26.9489 125.469 27.5745 125.206 28.1343C124.975 28.6941 124.86 29.1387 124.86 29.4679C124.86 29.5997 124.893 29.7149 124.959 29.8137C125.058 29.9125 125.107 29.9619 125.107 29.9619ZM143.133 34.6542C142.639 34.4896 142.195 34.2262 141.799 33.864C141.437 33.5017 141.289 32.909 141.355 32.0858C141.421 31.5919 141.52 31.0815 141.651 30.5546C141.783 29.9948 141.948 29.4515 142.145 28.9246C142.244 28.3319 142.359 27.7392 142.491 27.1465C142.656 26.5537 142.919 25.9939 143.281 25.4671C143.709 24.2487 144.154 23.0468 144.615 21.8614C145.076 20.643 145.471 19.3752 145.8 18.0581C146.294 16.8726 146.739 15.8189 147.134 14.8969C147.562 13.9749 148.072 12.7894 148.665 11.3406C148.994 10.5832 149.274 9.74352 149.505 8.82151C149.768 7.86657 150.163 7.02688 150.69 6.30245C150.921 6.00608 151.085 5.75912 151.184 5.56155C151.316 5.33104 151.448 5.117 151.579 4.91943C151.81 4.45843 152.156 4.24439 152.617 4.27732C153.111 4.31024 153.44 4.44196 153.604 4.67246C154.164 4.90297 154.559 5.33104 154.79 5.95669C155.02 6.54941 155.103 6.97749 155.037 7.24092C155.037 7.60314 154.905 7.99829 154.642 8.42636C154.51 8.55808 154.378 8.75565 154.247 9.01908C154.115 9.24958 153.917 9.56241 153.654 9.95756C153.522 10.3856 153.39 10.8137 153.259 11.2418C153.127 11.6699 152.979 12.065 152.814 12.4272C152.65 12.7894 152.468 13.1517 152.271 13.5139C152.073 13.8761 151.942 14.1725 151.876 14.403C151.579 15.1603 151.25 15.9012 150.888 16.6257C150.559 17.3172 150.262 18.0581 149.999 18.8484C149.735 19.6057 149.455 20.4125 149.159 21.2686C148.863 22.0919 148.484 22.8822 148.023 23.6395C147.793 23.9688 147.661 24.4134 147.628 24.9731C147.628 25.5329 147.562 26.0763 147.43 26.6031C147.2 27.1958 146.986 27.7392 146.788 28.2331C146.624 28.727 146.541 29.0399 146.541 29.1716C146.311 29.896 146.13 30.6205 145.998 31.3449C145.866 32.0364 145.652 32.6456 145.356 33.1724C145.356 33.9627 145.142 34.4567 144.714 34.6542C144.286 34.8518 143.759 34.8518 143.133 34.6542ZM154.444 35.0988C153.917 35.0329 153.522 34.9341 153.259 34.8024C152.995 34.6378 152.501 34.292 151.777 33.7652C151.382 33.37 150.888 32.7608 150.295 31.9376C149.702 31.1144 149.11 30.2418 148.517 29.3198C147.924 28.3648 147.397 27.5581 146.936 26.8995L149.653 23.4419C150.081 23.9688 150.427 24.4627 150.69 24.9238C150.954 25.3848 151.168 25.6976 151.332 25.8622C152.09 26.9818 152.682 27.8874 153.111 28.5789C153.539 29.2704 153.901 29.8302 154.197 30.2582C154.526 30.6863 154.889 31.065 155.284 31.3943C155.679 31.7236 156.189 32.0693 156.815 32.4315C156.914 32.4974 157.013 32.662 157.111 32.9255C157.21 33.156 157.243 33.4029 157.21 33.6664C157.144 34.0615 156.897 34.3908 156.469 34.6542C156.074 34.8847 155.399 35.0329 154.444 35.0988ZM147.282 25.961C147.085 25.4012 147.035 24.7756 147.134 24.0841C147.266 23.3596 147.546 22.8822 147.974 22.6517C148.105 22.4212 148.237 22.273 148.369 22.2071C148.533 22.1083 148.632 21.9931 148.665 21.8614C148.731 21.7296 148.896 21.5485 149.159 21.318C149.455 21.0875 149.719 20.8735 149.949 20.6759C150.476 20.3466 151.052 19.9515 151.678 19.4905C152.337 18.9965 152.962 18.5026 153.555 18.0087C154.181 17.5147 154.691 17.0867 155.086 16.7244C155.514 16.3622 155.778 16.1317 155.877 16.0329C155.975 15.9012 156.173 15.8189 156.469 15.786C156.799 15.753 157.111 15.8024 157.408 15.9342C157.803 16.0329 158.116 16.247 158.346 16.5763C158.61 16.9056 158.741 17.3666 158.741 17.9593C158.84 18.3215 158.626 18.766 158.099 19.2929C157.605 19.7868 156.98 20.2808 156.222 20.7747C155.959 20.9394 155.597 21.1863 155.136 21.5156C154.708 21.8449 154.329 22.1577 154 22.4541C153.769 22.5858 153.423 22.8163 152.962 23.1456C152.534 23.4419 152.156 23.7383 151.826 24.0347C151.563 24.1993 151.25 24.4957 150.888 24.9238C150.559 25.3189 150.18 25.6153 149.752 25.8128C148.698 26.8007 148.056 27.2782 147.825 27.2452C147.628 27.2123 147.447 26.7842 147.282 25.961ZM160.471 34.1603C160.208 33.8969 160.01 33.5017 159.879 32.9749C159.78 32.448 159.747 31.9376 159.78 31.4437C159.813 30.9168 159.895 30.5217 160.027 30.2582C160.027 29.9948 160.06 29.7972 160.126 29.6655C160.224 29.5009 160.257 29.3527 160.224 29.221C160.191 29.0893 160.224 28.8588 160.323 28.5295C160.422 28.2002 160.521 27.8874 160.619 27.591C160.85 27.0641 161.113 26.3891 161.41 25.5659C161.706 24.7097 162.002 23.8536 162.299 22.9974C162.595 22.1083 162.842 21.351 163.04 20.7253C163.237 20.0667 163.353 19.6716 163.386 19.5399C163.386 19.1447 163.649 18.9307 164.176 18.8978C164.571 18.766 165.048 18.9307 165.608 19.3917C166.168 19.8527 166.613 20.3466 166.942 20.8735C167.205 21.1369 167.304 21.4827 167.238 21.9108C167.172 22.3388 166.958 22.948 166.596 23.7383C166.464 24.0017 166.3 24.4463 166.102 25.0719C165.937 25.6647 165.822 26.1586 165.756 26.5537C165.625 26.8172 165.46 27.1958 165.262 27.6898C165.098 28.1508 164.95 28.5953 164.818 29.0234C164.752 29.188 164.686 29.5009 164.62 29.9619C164.554 30.39 164.472 30.8345 164.373 31.2955C164.275 31.7565 164.143 32.1187 163.978 32.3822C163.682 33.7322 163.155 34.5225 162.398 34.753C161.673 34.9835 161.031 34.786 160.471 34.1603ZM165.806 14.3536C165.444 14.0901 165.164 13.7773 164.966 13.4151C164.801 13.0199 164.703 12.6742 164.67 12.3778C164.67 12.0815 164.703 11.9004 164.769 11.8345C165.098 11.4723 165.378 10.9948 165.608 10.4021C165.872 9.80938 166.152 9.26605 166.448 8.77211C166.514 8.67333 166.596 8.54161 166.695 8.37697C166.827 8.17939 166.958 8.06414 167.09 8.03121C167.485 7.76778 168.028 7.78425 168.72 8.08061C169.444 8.37697 169.971 8.78858 170.301 9.31544C170.597 9.94109 170.679 10.5832 170.548 11.2418C170.449 11.9004 170.103 12.5919 169.51 13.3163C169.016 13.9749 168.391 14.403 167.633 14.6005C166.876 14.7652 166.267 14.6829 165.806 14.3536ZM172.587 33.37C171.961 33.1066 171.451 32.7114 171.056 32.1846C170.694 31.6248 170.512 30.9497 170.512 30.1594C170.512 29.8302 170.578 29.2704 170.71 28.4801C170.842 27.6898 171.023 26.8007 171.253 25.8128C171.484 24.825 171.714 23.903 171.945 23.0468C172.274 22.4541 172.488 21.8614 172.587 21.2686C172.719 20.6759 172.785 20.3137 172.785 20.182C172.85 19.7868 172.966 19.26 173.13 18.6014C173.295 17.9428 173.46 17.3501 173.624 16.8232C173.822 16.2634 173.954 15.9506 174.019 15.8848C174.184 15.7201 174.464 15.6213 174.859 15.5884C175.254 15.5555 175.649 15.6049 176.044 15.7366C176.44 15.8354 176.703 16.0494 176.835 16.3787C177.197 16.7738 177.395 17.3666 177.428 18.1569C177.493 18.9472 177.345 19.8692 176.983 20.9229C176.687 21.5815 176.39 22.3553 176.094 23.2444C175.798 24.1335 175.534 24.9567 175.304 25.714C175.106 26.4385 174.991 26.9324 174.958 27.1958L173.18 27.1465C173.739 26.6196 174.266 26.0763 174.76 25.5165C175.254 24.9238 175.616 24.4627 175.847 24.1335C176.407 23.3761 176.884 22.7504 177.279 22.2565C177.707 21.7296 178.251 21.104 178.909 20.3796C179.568 19.6222 180.276 19.0953 181.033 18.799C181.791 18.4697 182.35 18.305 182.713 18.305C183.437 18.4368 184.079 18.8154 184.639 19.4411C185.232 20.0338 185.594 20.9229 185.726 22.1083C185.726 22.5693 185.676 23.1127 185.577 23.7383C185.512 24.364 185.479 24.6768 185.479 24.6768C185.479 24.6768 185.742 24.3475 186.269 23.6889C186.829 23.0303 187.57 22.2894 188.492 21.4662C189.117 21.0052 189.726 20.7418 190.319 20.6759C190.912 20.5771 191.439 20.7747 191.9 21.2686C192.756 21.7296 193.382 22.5364 193.777 23.6889C194.172 24.8414 194.304 26.1421 194.172 27.591C194.073 28.4471 194.073 29.1387 194.172 29.6655C194.304 30.1594 194.435 30.604 194.567 30.9991C194.995 31.5919 195.061 32.1187 194.765 32.5797C194.468 33.0078 194.205 33.2218 193.974 33.2218C193.645 33.2218 193.151 33.156 192.492 33.0243C191.834 32.8925 191.225 32.662 190.665 32.3328C190.138 32.0035 189.875 31.5589 189.875 30.9991V27.9367C189.875 27.2123 189.842 26.6854 189.776 26.3562C189.743 25.9939 189.661 25.7634 189.529 25.6647C189.167 25.4671 188.722 25.6153 188.195 26.1092C187.668 26.6031 187.092 27.3111 186.466 28.2331C185.874 29.1222 185.232 30.1265 184.54 31.2461C183.915 32.2669 183.404 32.8925 183.009 33.1231C182.614 33.3206 182.235 33.3042 181.873 33.0737C181.148 32.8432 180.687 32.5303 180.49 32.1352C180.325 31.7071 180.309 31.2296 180.441 30.7028C180.605 30.143 180.803 29.4185 181.033 28.5295C181.297 27.6404 181.544 26.7842 181.774 25.961C182.005 25.1049 182.153 24.4792 182.219 24.0841C182.087 23.8206 181.856 23.7383 181.527 23.8371C181.231 23.903 180.918 24.0511 180.589 24.2816C180.194 24.5451 179.765 24.825 179.304 25.1213C178.876 25.4177 178.366 26.0433 177.773 26.9983C177.378 27.6239 176.934 28.3154 176.44 29.0728C175.946 29.7972 175.485 30.4558 175.057 31.0485C174.661 31.6413 174.332 32.0529 174.069 32.2834C173.838 32.8761 173.624 33.2548 173.427 33.4194C173.229 33.5511 172.949 33.5347 172.587 33.37Z" fill="url(#paint0_linear_317_17)"/>
<defs>
<linearGradient id="paint0_linear_317_17" x1="-29.5099" y1="-53.3988" x2="109.694" y2="-27.421" gradientUnits="userSpaceOnUse">
<stop stop-color="#B16CEA"/>
<stop offset="1" stop-color="#FF755F"/>
</linearGradient>
</defs>
</svg>
