<svg width="20" height="20" viewBox="0 0 20 20" fill="none" xmlns="http://www.w3.org/2000/svg">
<rect x="0.418053" y="0.24569" width="19.1638" height="19.1638" rx="9.5819" stroke="#FF7660" stroke-width="0.491379"/>
<g clip-path="url(#clip0_379_24)">
<path d="M12.8294 7.44416C13.373 7.46544 13.9151 7.37513 14.4225 7.17882C14.1935 7.96994 13.0427 8.59497 13.0427 8.59497C13.0427 11.0936 10.1691 14.7849 5.57764 12.6921C6.55777 12.6485 7.51075 12.3565 8.34705 11.8435C7.49689 11.2485 6.85348 10.4032 6.50646 9.42523C6.15943 8.4473 6.12607 7.38548 6.41102 6.3877C6.83604 6.99056 7.38822 7.49278 8.02858 7.8589C8.66893 8.22501 9.38185 8.44609 10.117 8.50652C10.1118 8.42848 10.1118 8.35018 10.117 8.27214C10.1165 7.95232 10.219 7.64086 10.4093 7.38384C10.5997 7.12683 10.8677 6.93792 11.1737 6.8451C11.4798 6.75227 11.8076 6.76045 12.1086 6.86843C12.4096 6.97642 12.6679 7.17846 12.8451 7.44465L12.8294 7.44416Z" stroke="url(#paint0_linear_379_24)" stroke-width="0.737069" stroke-linecap="round" stroke-linejoin="round"/>
</g>
<defs>
<linearGradient id="paint0_linear_379_24" x1="10.0001" y1="6.3877" x2="10.0001" y2="13.3101" gradientUnits="userSpaceOnUse">
<stop stop-color="#CD70BA"/>
<stop offset="1" stop-color="#FF7660"/>
</linearGradient>
<clipPath id="clip0_379_24">
<rect width="11.7931" height="11.7931" fill="white" transform="translate(4.10352 3.93066)"/>
</clipPath>
</defs>
</svg>
