<svg width="25" height="25" viewBox="0 0 25 25" fill="none" xmlns="http://www.w3.org/2000/svg">
<rect x="0.685429" y="0.306034" width="23.8707" height="23.8707" rx="11.9353" stroke="#FF7660" stroke-width="0.612069"/>
<path d="M19.4265 16.1998C19.8072 15.4451 19.9989 14.6093 19.9854 13.7642C19.9718 12.919 19.7532 12.0898 19.3485 11.3477C18.9437 10.6057 18.3649 9.97298 17.6617 9.50397C16.9585 9.03496 16.152 8.74366 15.3114 8.65511C15.0425 8.00796 14.6462 7.42154 14.146 6.93079C13.6457 6.44003 13.0518 6.05499 12.3997 5.79859C11.7475 5.54219 11.0504 5.41969 10.3499 5.43838C9.64936 5.45707 8.95977 5.61657 8.3222 5.90738C7.68463 6.19819 7.11211 6.61435 6.63876 7.13108C6.16541 7.64781 5.80091 8.25453 5.56697 8.91509C5.33304 9.57566 5.23446 10.2765 5.27711 10.976C5.31975 11.6755 5.50275 12.3592 5.8152 12.9865L5.28835 14.8321C5.24909 14.9698 5.24736 15.1155 5.28331 15.2541C5.31927 15.3927 5.39162 15.5192 5.49286 15.6204C5.59411 15.7217 5.72057 15.794 5.85916 15.83C5.99776 15.8659 6.14344 15.8642 6.28114 15.8249L8.12615 15.2981C8.69101 15.5842 9.30372 15.764 9.93366 15.8283C10.2066 16.4946 10.6145 17.0972 11.1315 17.5984C11.6486 18.0995 12.2637 18.4883 12.9383 18.7402C13.6128 18.9922 14.3322 19.102 15.0512 19.0626C15.7701 19.0232 16.4732 18.8356 17.1162 18.5114L18.9619 19.0383C19.0996 19.0775 19.2453 19.0793 19.3838 19.0433C19.5224 19.0074 19.6489 18.935 19.7501 18.8338C19.8514 18.7325 19.9237 18.6061 19.9597 18.4675C19.9957 18.3289 19.9939 18.1832 19.9547 18.0455L19.4265 16.1998ZM8.3638 14.5175C8.27105 14.4669 8.16209 14.4549 8.06054 14.484L6.06022 15.053L6.63126 13.0534C6.66043 12.9518 6.6484 12.8429 6.59779 12.7501C6.32611 12.2364 6.15847 11.674 6.10446 11.0953C6.05046 10.5167 6.11115 9.933 6.28307 9.37782C6.45498 8.82263 6.73475 8.30682 7.10633 7.85992C7.47791 7.41303 7.93401 7.04384 8.4485 6.77349C8.96299 6.50315 9.52576 6.33696 10.1046 6.28446C10.6834 6.23196 11.2669 6.29417 11.8216 6.46753C12.3764 6.64088 12.8914 6.92198 13.3374 7.29472C13.7833 7.66747 14.1513 8.12452 14.4203 8.63971C13.6692 8.68859 12.9376 8.89942 12.2757 9.25774C11.6138 9.61605 11.0373 10.1134 10.5857 10.7155C10.1342 11.3177 9.81829 12.0104 9.65974 12.7462C9.50119 13.482 9.50374 14.2434 9.66722 14.9781C9.21094 14.8951 8.77089 14.7396 8.3638 14.5175ZM18.6097 16.2688L19.1814 18.2664L17.1818 17.6954C17.0802 17.6662 16.9713 17.6782 16.8785 17.7288C15.9453 18.2367 14.8603 18.3913 13.8224 18.1642C12.7844 17.9372 11.863 17.3437 11.2271 16.4926C10.5911 15.6414 10.2832 14.5896 10.3597 13.5299C10.4361 12.4702 10.8919 11.4735 11.6435 10.7225C12.3951 9.97147 13.3921 9.51644 14.4519 9.44076C15.5117 9.36509 16.5632 9.67384 17.4139 10.3104C18.2645 10.947 18.8573 11.8689 19.0836 12.907C19.3099 13.9451 19.1545 15.03 18.6459 15.9628C18.5944 16.0552 18.5814 16.1642 18.6097 16.2661V16.2688ZM13.5581 13.0447C13.5581 13.1771 13.5188 13.3065 13.4452 13.4166C13.3717 13.5267 13.2671 13.6125 13.1448 13.6632C13.0225 13.7139 12.8879 13.7271 12.758 13.7013C12.6282 13.6755 12.5089 13.6117 12.4152 13.5181C12.3216 13.4244 12.2579 13.3052 12.232 13.1753C12.2062 13.0454 12.2195 12.9108 12.2701 12.7885C12.3208 12.6662 12.4066 12.5616 12.5167 12.4881C12.6268 12.4145 12.7562 12.3752 12.8886 12.3752C13.0662 12.3752 13.2364 12.4458 13.362 12.5713C13.4875 12.6969 13.5581 12.8671 13.5581 13.0447ZM17.307 13.0447C17.307 13.1771 17.2677 13.3065 17.1942 13.4166C17.1206 13.5267 17.0161 13.6125 16.8937 13.6632C16.7714 13.7139 16.6368 13.7271 16.5069 13.7013C16.3771 13.6755 16.2578 13.6117 16.1642 13.5181C16.0705 13.4244 16.0068 13.3052 15.981 13.1753C15.9551 13.0454 15.9684 12.9108 16.019 12.7885C16.0697 12.6662 16.1555 12.5616 16.2656 12.4881C16.3757 12.4145 16.5051 12.3752 16.6375 12.3752C16.8151 12.3752 16.9854 12.4458 17.1109 12.5713C17.2365 12.6969 17.307 12.8671 17.307 13.0447Z" fill="url(#paint0_linear_802_66)"/>
<defs>
<linearGradient id="paint0_linear_802_66" x1="12.6218" y1="5.43652" x2="12.6218" y2="19.0704" gradientUnits="userSpaceOnUse">
<stop stop-color="#D072B9"/>
<stop offset="1" stop-color="#FE7562"/>
</linearGradient>
</defs>
</svg>
