<svg width="25" height="25" viewBox="0 0 25 25" fill="none" xmlns="http://www.w3.org/2000/svg">
<rect x="0.443974" y="0.306034" width="23.8707" height="23.8707" rx="11.9353" stroke="#FF7660" stroke-width="0.612069"/>
<g clip-path="url(#clip0_802_72)">
<path d="M16.6637 8.80312C16.8981 8.86568 17.1116 8.98929 17.2826 9.16134C17.4536 9.33338 17.5758 9.5477 17.6369 9.78243C17.8046 10.6699 17.8891 11.5715 17.8879 12.4755C17.8936 13.3704 17.8158 14.2638 17.6553 15.1442C17.5963 15.3854 17.4729 15.6061 17.2983 15.7827C17.1236 15.9593 16.9043 16.0851 16.6637 16.1467C15.2419 16.3181 13.8109 16.3958 12.3793 16.3793C10.9476 16.3958 9.51661 16.3181 8.09478 16.1467C7.86044 16.0842 7.64689 15.9606 7.47592 15.7885C7.30495 15.6165 7.18268 15.4021 7.12159 15.1674C6.95342 14.2796 6.8694 13.3779 6.87064 12.4743C6.86508 11.5795 6.94295 10.6861 7.10323 9.80569C7.1622 9.56444 7.2856 9.34374 7.46023 9.16716C7.63487 8.99058 7.8542 8.86476 8.09478 8.80312C9.51629 8.63173 10.9475 8.55404 12.3793 8.57053C13.8109 8.55401 15.2419 8.63174 16.6637 8.80312Z" stroke="url(#paint0_linear_802_72)" stroke-width="0.918103" stroke-linecap="round" stroke-linejoin="round"/>
<path d="M14.1358 12.4753L11.2529 10.835V14.1157L14.1358 12.4753Z" stroke="url(#paint1_linear_802_72)" stroke-width="0.918103" stroke-linecap="round" stroke-linejoin="round"/>
</g>
<defs>
<linearGradient id="paint0_linear_802_72" x1="12.3793" y1="8.56836" x2="12.3793" y2="16.3815" gradientUnits="userSpaceOnUse">
<stop stop-color="#CD70BA"/>
<stop offset="1" stop-color="#FF7660"/>
</linearGradient>
<linearGradient id="paint1_linear_802_72" x1="12.6944" y1="10.835" x2="12.6944" y2="14.1157" gradientUnits="userSpaceOnUse">
<stop stop-color="#CD70BA"/>
<stop offset="1" stop-color="#FF7660"/>
</linearGradient>
<clipPath id="clip0_802_72">
<rect width="14.6897" height="14.6897" fill="white" transform="translate(5.03442 4.89648)"/>
</clipPath>
</defs>
</svg>
