<svg width="25" height="25" viewBox="0 0 25 25" fill="none" xmlns="http://www.w3.org/2000/svg">
<rect x="0.306034" y="0.306034" width="23.8707" height="23.8707" rx="11.9353" stroke="#FF7660" stroke-width="0.612069"/>
<path d="M6.11084 9.49136V13.6167C6.11451 14.5495 6.94387 15.2999 7.95562 15.2968H14.5005C14.6859 15.2968 14.8365 15.1591 14.8365 14.992V10.8667C14.8316 9.9345 14.0022 9.18349 12.9917 9.18716H6.44564C6.2608 9.18716 6.11084 9.32426 6.11084 9.49136ZM15.2527 11.1011L17.9556 9.28754C18.19 9.10882 18.3718 9.1535 18.3718 9.47667V15.0073C18.3718 15.3752 18.1496 15.3305 17.9556 15.1965L15.2527 13.3866V11.1011Z" fill="url(#paint0_linear_802_63)"/>
<defs>
<linearGradient id="paint0_linear_802_63" x1="12.2413" y1="9.18359" x2="12.2413" y2="15.2968" gradientUnits="userSpaceOnUse">
<stop stop-color="#D471AD"/>
<stop offset="1" stop-color="#FE7563"/>
</linearGradient>
</defs>
</svg>
